<?xml version="1.0" encoding="utf-8" standalone="no"?>
<!DOCTYPE svg PUBLIC "-//W3C//DTD SVG 1.1//EN"
  "http://www.w3.org/Graphics/SVG/1.1/DTD/svg11.dtd">
<!-- Created with matplotlib (http://matplotlib.org/) -->
<svg height="288pt" version="1.1" viewBox="0 0 432 288" width="432pt" xmlns="http://www.w3.org/2000/svg" xmlns:xlink="http://www.w3.org/1999/xlink">
 <defs>
  <style type="text/css">
*{stroke-linecap:butt;stroke-linejoin:round;stroke-miterlimit:100000;}
  </style>
 </defs>
 <g id="figure_1">
  <g id="patch_1">
   <path d="M 0 288 
L 432 288 
L 432 0 
L 0 0 
z
" style="fill:#ffffff;"/>
  </g>
  <g id="axes_1">
   <g id="patch_2">
    <path d="M 54 252 
L 388.8 252 
L 388.8 28.8 
L 54 28.8 
z
" style="fill:#e5e5e5;"/>
   </g>
   <g id="matplotlib.axis_1">
    <g id="xtick_1">
     <g id="line2d_1">
      <path clip-path="url(#p5b4c699298)" d="M 54 252 
L 54 28.8 
" style="fill:none;stroke:#ffffff;stroke-linecap:square;stroke-width:0.5;"/>
     </g>
     <g id="line2d_2">
      <defs>
       <path d="M 0 0 
L 0 4 
" id="md268c987fb" style="stroke:#555555;stroke-width:0.5;"/>
      </defs>
      <g>
       <use style="fill:#555555;stroke:#555555;stroke-width:0.5;" x="54.0" xlink:href="#md268c987fb" y="252.0"/>
      </g>
     </g>
     <g id="line2d_3">
      <defs>
       <path d="M 0 0 
L 0 -4 
" id="m5dcd3b4fd6" style="stroke:#555555;stroke-width:0.5;"/>
      </defs>
      <g>
       <use style="fill:#555555;stroke:#555555;stroke-width:0.5;" x="54.0" xlink:href="#m5dcd3b4fd6" y="28.8"/>
      </g>
     </g>
     <g id="text_1">
      <!-- EX_cpd00009_e0 -->
      <defs>
       <path d="M 10.984375 1.515625 
L 10.984375 10.5 
Q 14.703125 8.734375 18.5 7.8125 
Q 22.3125 6.890625 25.984375 6.890625 
Q 35.75 6.890625 40.890625 13.453125 
Q 46.046875 20.015625 46.78125 33.40625 
Q 43.953125 29.203125 39.59375 26.953125 
Q 35.25 24.703125 29.984375 24.703125 
Q 19.046875 24.703125 12.671875 31.3125 
Q 6.296875 37.9375 6.296875 49.421875 
Q 6.296875 60.640625 12.9375 67.421875 
Q 19.578125 74.21875 30.609375 74.21875 
Q 43.265625 74.21875 49.921875 64.515625 
Q 56.59375 54.828125 56.59375 36.375 
Q 56.59375 19.140625 48.40625 8.859375 
Q 40.234375 -1.421875 26.421875 -1.421875 
Q 22.703125 -1.421875 18.890625 -0.6875 
Q 15.09375 0.046875 10.984375 1.515625 
M 30.609375 32.421875 
Q 37.25 32.421875 41.125 36.953125 
Q 45.015625 41.5 45.015625 49.421875 
Q 45.015625 57.28125 41.125 61.84375 
Q 37.25 66.40625 30.609375 66.40625 
Q 23.96875 66.40625 20.09375 61.84375 
Q 16.21875 57.28125 16.21875 49.421875 
Q 16.21875 41.5 20.09375 36.953125 
Q 23.96875 32.421875 30.609375 32.421875 
" id="BitstreamVeraSans-Roman-39"/>
       <path d="M 9.8125 72.90625 
L 55.90625 72.90625 
L 55.90625 64.59375 
L 19.671875 64.59375 
L 19.671875 43.015625 
L 54.390625 43.015625 
L 54.390625 34.71875 
L 19.671875 34.71875 
L 19.671875 8.296875 
L 56.78125 8.296875 
L 56.78125 0 
L 9.8125 0 
z
" id="BitstreamVeraSans-Roman-45"/>
       <path d="M 48.78125 52.59375 
L 48.78125 44.1875 
Q 44.96875 46.296875 41.140625 47.34375 
Q 37.3125 48.390625 33.40625 48.390625 
Q 24.65625 48.390625 19.8125 42.84375 
Q 14.984375 37.3125 14.984375 27.296875 
Q 14.984375 17.28125 19.8125 11.734375 
Q 24.65625 6.203125 33.40625 6.203125 
Q 37.3125 6.203125 41.140625 7.25 
Q 44.96875 8.296875 48.78125 10.40625 
L 48.78125 2.09375 
Q 45.015625 0.34375 40.984375 -0.53125 
Q 36.96875 -1.421875 32.421875 -1.421875 
Q 20.0625 -1.421875 12.78125 6.34375 
Q 5.515625 14.109375 5.515625 27.296875 
Q 5.515625 40.671875 12.859375 48.328125 
Q 20.21875 56 33.015625 56 
Q 37.15625 56 41.109375 55.140625 
Q 45.0625 54.296875 48.78125 52.59375 
" id="BitstreamVeraSans-Roman-63"/>
       <path d="M 56.203125 29.59375 
L 56.203125 25.203125 
L 14.890625 25.203125 
Q 15.484375 15.921875 20.484375 11.0625 
Q 25.484375 6.203125 34.421875 6.203125 
Q 39.59375 6.203125 44.453125 7.46875 
Q 49.3125 8.734375 54.109375 11.28125 
L 54.109375 2.78125 
Q 49.265625 0.734375 44.1875 -0.34375 
Q 39.109375 -1.421875 33.890625 -1.421875 
Q 20.796875 -1.421875 13.15625 6.1875 
Q 5.515625 13.8125 5.515625 26.8125 
Q 5.515625 40.234375 12.765625 48.109375 
Q 20.015625 56 32.328125 56 
Q 43.359375 56 49.78125 48.890625 
Q 56.203125 41.796875 56.203125 29.59375 
M 47.21875 32.234375 
Q 47.125 39.59375 43.09375 43.984375 
Q 39.0625 48.390625 32.421875 48.390625 
Q 24.90625 48.390625 20.390625 44.140625 
Q 15.875 39.890625 15.1875 32.171875 
z
" id="BitstreamVeraSans-Roman-65"/>
       <path d="M 18.109375 8.203125 
L 18.109375 -20.796875 
L 9.078125 -20.796875 
L 9.078125 54.6875 
L 18.109375 54.6875 
L 18.109375 46.390625 
Q 20.953125 51.265625 25.265625 53.625 
Q 29.59375 56 35.59375 56 
Q 45.5625 56 51.78125 48.09375 
Q 58.015625 40.1875 58.015625 27.296875 
Q 58.015625 14.40625 51.78125 6.484375 
Q 45.5625 -1.421875 35.59375 -1.421875 
Q 29.59375 -1.421875 25.265625 0.953125 
Q 20.953125 3.328125 18.109375 8.203125 
M 48.6875 27.296875 
Q 48.6875 37.203125 44.609375 42.84375 
Q 40.53125 48.484375 33.40625 48.484375 
Q 26.265625 48.484375 22.1875 42.84375 
Q 18.109375 37.203125 18.109375 27.296875 
Q 18.109375 17.390625 22.1875 11.75 
Q 26.265625 6.109375 33.40625 6.109375 
Q 40.53125 6.109375 44.609375 11.75 
Q 48.6875 17.390625 48.6875 27.296875 
" id="BitstreamVeraSans-Roman-70"/>
       <path d="M 50.984375 -16.609375 
L 50.984375 -23.578125 
L -0.984375 -23.578125 
L -0.984375 -16.609375 
z
" id="BitstreamVeraSans-Roman-5f"/>
       <path d="M 31.78125 66.40625 
Q 24.171875 66.40625 20.328125 58.90625 
Q 16.5 51.421875 16.5 36.375 
Q 16.5 21.390625 20.328125 13.890625 
Q 24.171875 6.390625 31.78125 6.390625 
Q 39.453125 6.390625 43.28125 13.890625 
Q 47.125 21.390625 47.125 36.375 
Q 47.125 51.421875 43.28125 58.90625 
Q 39.453125 66.40625 31.78125 66.40625 
M 31.78125 74.21875 
Q 44.046875 74.21875 50.515625 64.515625 
Q 56.984375 54.828125 56.984375 36.375 
Q 56.984375 17.96875 50.515625 8.265625 
Q 44.046875 -1.421875 31.78125 -1.421875 
Q 19.53125 -1.421875 13.0625 8.265625 
Q 6.59375 17.96875 6.59375 36.375 
Q 6.59375 54.828125 13.0625 64.515625 
Q 19.53125 74.21875 31.78125 74.21875 
" id="BitstreamVeraSans-Roman-30"/>
       <path d="M 6.296875 72.90625 
L 16.890625 72.90625 
L 35.015625 45.796875 
L 53.21875 72.90625 
L 63.8125 72.90625 
L 40.375 37.890625 
L 65.375 0 
L 54.78125 0 
L 34.28125 31 
L 13.625 0 
L 2.984375 0 
L 29 38.921875 
z
" id="BitstreamVeraSans-Roman-58"/>
       <path d="M 45.40625 46.390625 
L 45.40625 75.984375 
L 54.390625 75.984375 
L 54.390625 0 
L 45.40625 0 
L 45.40625 8.203125 
Q 42.578125 3.328125 38.25 0.953125 
Q 33.9375 -1.421875 27.875 -1.421875 
Q 17.96875 -1.421875 11.734375 6.484375 
Q 5.515625 14.40625 5.515625 27.296875 
Q 5.515625 40.1875 11.734375 48.09375 
Q 17.96875 56 27.875 56 
Q 33.9375 56 38.25 53.625 
Q 42.578125 51.265625 45.40625 46.390625 
M 14.796875 27.296875 
Q 14.796875 17.390625 18.875 11.75 
Q 22.953125 6.109375 30.078125 6.109375 
Q 37.203125 6.109375 41.296875 11.75 
Q 45.40625 17.390625 45.40625 27.296875 
Q 45.40625 37.203125 41.296875 42.84375 
Q 37.203125 48.484375 30.078125 48.484375 
Q 22.953125 48.484375 18.875 42.84375 
Q 14.796875 37.203125 14.796875 27.296875 
" id="BitstreamVeraSans-Roman-64"/>
      </defs>
      <g style="fill:#555555;" transform="translate(11.15390625 267.5984375)scale(0.1 -0.1)">
       <use xlink:href="#BitstreamVeraSans-Roman-45"/>
       <use x="63.18359375" xlink:href="#BitstreamVeraSans-Roman-58"/>
       <use x="131.689453125" xlink:href="#BitstreamVeraSans-Roman-5f"/>
       <use x="181.689453125" xlink:href="#BitstreamVeraSans-Roman-63"/>
       <use x="236.669921875" xlink:href="#BitstreamVeraSans-Roman-70"/>
       <use x="300.146484375" xlink:href="#BitstreamVeraSans-Roman-64"/>
       <use x="363.623046875" xlink:href="#BitstreamVeraSans-Roman-30"/>
       <use x="427.24609375" xlink:href="#BitstreamVeraSans-Roman-30"/>
       <use x="490.869140625" xlink:href="#BitstreamVeraSans-Roman-30"/>
       <use x="554.4921875" xlink:href="#BitstreamVeraSans-Roman-30"/>
       <use x="618.115234375" xlink:href="#BitstreamVeraSans-Roman-39"/>
       <use x="681.73828125" xlink:href="#BitstreamVeraSans-Roman-5f"/>
       <use x="731.73828125" xlink:href="#BitstreamVeraSans-Roman-65"/>
       <use x="793.26171875" xlink:href="#BitstreamVeraSans-Roman-30"/>
      </g>
     </g>
    </g>
    <g id="xtick_2">
     <g id="line2d_4">
      <path clip-path="url(#p5b4c699298)" d="M 97.452304 252 
L 97.452304 28.8 
" style="fill:none;stroke:#ffffff;stroke-linecap:square;stroke-width:0.5;"/>
     </g>
     <g id="line2d_5">
      <g>
       <use style="fill:#555555;stroke:#555555;stroke-width:0.5;" x="97.4523036989" xlink:href="#md268c987fb" y="252.0"/>
      </g>
     </g>
     <g id="line2d_6">
      <g>
       <use style="fill:#555555;stroke:#555555;stroke-width:0.5;" x="97.4523036989" xlink:href="#m5dcd3b4fd6" y="28.8"/>
      </g>
     </g>
     <g id="text_2">
      <!-- rxn01148_c0 -->
      <defs>
       <path d="M 31.78125 34.625 
Q 24.75 34.625 20.71875 30.859375 
Q 16.703125 27.09375 16.703125 20.515625 
Q 16.703125 13.921875 20.71875 10.15625 
Q 24.75 6.390625 31.78125 6.390625 
Q 38.8125 6.390625 42.859375 10.171875 
Q 46.921875 13.96875 46.921875 20.515625 
Q 46.921875 27.09375 42.890625 30.859375 
Q 38.875 34.625 31.78125 34.625 
M 21.921875 38.8125 
Q 15.578125 40.375 12.03125 44.71875 
Q 8.5 49.078125 8.5 55.328125 
Q 8.5 64.0625 14.71875 69.140625 
Q 20.953125 74.21875 31.78125 74.21875 
Q 42.671875 74.21875 48.875 69.140625 
Q 55.078125 64.0625 55.078125 55.328125 
Q 55.078125 49.078125 51.53125 44.71875 
Q 48 40.375 41.703125 38.8125 
Q 48.828125 37.15625 52.796875 32.3125 
Q 56.78125 27.484375 56.78125 20.515625 
Q 56.78125 9.90625 50.3125 4.234375 
Q 43.84375 -1.421875 31.78125 -1.421875 
Q 19.734375 -1.421875 13.25 4.234375 
Q 6.78125 9.90625 6.78125 20.515625 
Q 6.78125 27.484375 10.78125 32.3125 
Q 14.796875 37.15625 21.921875 38.8125 
M 18.3125 54.390625 
Q 18.3125 48.734375 21.84375 45.5625 
Q 25.390625 42.390625 31.78125 42.390625 
Q 38.140625 42.390625 41.71875 45.5625 
Q 45.3125 48.734375 45.3125 54.390625 
Q 45.3125 60.0625 41.71875 63.234375 
Q 38.140625 66.40625 31.78125 66.40625 
Q 25.390625 66.40625 21.84375 63.234375 
Q 18.3125 60.0625 18.3125 54.390625 
" id="BitstreamVeraSans-Roman-38"/>
       <path d="M 12.40625 8.296875 
L 28.515625 8.296875 
L 28.515625 63.921875 
L 10.984375 60.40625 
L 10.984375 69.390625 
L 28.421875 72.90625 
L 38.28125 72.90625 
L 38.28125 8.296875 
L 54.390625 8.296875 
L 54.390625 0 
L 12.40625 0 
z
" id="BitstreamVeraSans-Roman-31"/>
       <path d="M 41.109375 46.296875 
Q 39.59375 47.171875 37.8125 47.578125 
Q 36.03125 48 33.890625 48 
Q 26.265625 48 22.1875 43.046875 
Q 18.109375 38.09375 18.109375 28.8125 
L 18.109375 0 
L 9.078125 0 
L 9.078125 54.6875 
L 18.109375 54.6875 
L 18.109375 46.1875 
Q 20.953125 51.171875 25.484375 53.578125 
Q 30.03125 56 36.53125 56 
Q 37.453125 56 38.578125 55.875 
Q 39.703125 55.765625 41.0625 55.515625 
z
" id="BitstreamVeraSans-Roman-72"/>
       <path d="M 54.890625 33.015625 
L 54.890625 0 
L 45.90625 0 
L 45.90625 32.71875 
Q 45.90625 40.484375 42.875 44.328125 
Q 39.84375 48.1875 33.796875 48.1875 
Q 26.515625 48.1875 22.3125 43.546875 
Q 18.109375 38.921875 18.109375 30.90625 
L 18.109375 0 
L 9.078125 0 
L 9.078125 54.6875 
L 18.109375 54.6875 
L 18.109375 46.1875 
Q 21.34375 51.125 25.703125 53.5625 
Q 30.078125 56 35.796875 56 
Q 45.21875 56 50.046875 50.171875 
Q 54.890625 44.34375 54.890625 33.015625 
" id="BitstreamVeraSans-Roman-6e"/>
       <path d="M 54.890625 54.6875 
L 35.109375 28.078125 
L 55.90625 0 
L 45.3125 0 
L 29.390625 21.484375 
L 13.484375 0 
L 2.875 0 
L 24.125 28.609375 
L 4.6875 54.6875 
L 15.28125 54.6875 
L 29.78125 35.203125 
L 44.28125 54.6875 
z
" id="BitstreamVeraSans-Roman-78"/>
       <path d="M 37.796875 64.3125 
L 12.890625 25.390625 
L 37.796875 25.390625 
z
M 35.203125 72.90625 
L 47.609375 72.90625 
L 47.609375 25.390625 
L 58.015625 25.390625 
L 58.015625 17.1875 
L 47.609375 17.1875 
L 47.609375 0 
L 37.796875 0 
L 37.796875 17.1875 
L 4.890625 17.1875 
L 4.890625 26.703125 
z
" id="BitstreamVeraSans-Roman-34"/>
      </defs>
      <g style="fill:#555555;" transform="translate(64.9335536989 267.421875)scale(0.1 -0.1)">
       <use xlink:href="#BitstreamVeraSans-Roman-72"/>
       <use x="41.08203125" xlink:href="#BitstreamVeraSans-Roman-78"/>
       <use x="100.26171875" xlink:href="#BitstreamVeraSans-Roman-6e"/>
       <use x="163.640625" xlink:href="#BitstreamVeraSans-Roman-30"/>
       <use x="227.263671875" xlink:href="#BitstreamVeraSans-Roman-31"/>
       <use x="290.88671875" xlink:href="#BitstreamVeraSans-Roman-31"/>
       <use x="354.509765625" xlink:href="#BitstreamVeraSans-Roman-34"/>
       <use x="418.1328125" xlink:href="#BitstreamVeraSans-Roman-38"/>
       <use x="481.755859375" xlink:href="#BitstreamVeraSans-Roman-5f"/>
       <use x="531.755859375" xlink:href="#BitstreamVeraSans-Roman-63"/>
       <use x="586.736328125" xlink:href="#BitstreamVeraSans-Roman-30"/>
      </g>
     </g>
    </g>
    <g id="xtick_3">
     <g id="line2d_7">
      <path clip-path="url(#p5b4c699298)" d="M 140.904607 252 
L 140.904607 28.8 
" style="fill:none;stroke:#ffffff;stroke-linecap:square;stroke-width:0.5;"/>
     </g>
     <g id="line2d_8">
      <g>
       <use style="fill:#555555;stroke:#555555;stroke-width:0.5;" x="140.904607398" xlink:href="#md268c987fb" y="252.0"/>
      </g>
     </g>
     <g id="line2d_9">
      <g>
       <use style="fill:#555555;stroke:#555555;stroke-width:0.5;" x="140.904607398" xlink:href="#m5dcd3b4fd6" y="28.8"/>
      </g>
     </g>
     <g id="text_3">
      <!-- rxn04599_c0 -->
      <defs>
       <path d="M 10.796875 72.90625 
L 49.515625 72.90625 
L 49.515625 64.59375 
L 19.828125 64.59375 
L 19.828125 46.734375 
Q 21.96875 47.46875 24.109375 47.828125 
Q 26.265625 48.1875 28.421875 48.1875 
Q 40.625 48.1875 47.75 41.5 
Q 54.890625 34.8125 54.890625 23.390625 
Q 54.890625 11.625 47.5625 5.09375 
Q 40.234375 -1.421875 26.90625 -1.421875 
Q 22.3125 -1.421875 17.546875 -0.640625 
Q 12.796875 0.140625 7.71875 1.703125 
L 7.71875 11.625 
Q 12.109375 9.234375 16.796875 8.0625 
Q 21.484375 6.890625 26.703125 6.890625 
Q 35.15625 6.890625 40.078125 11.328125 
Q 45.015625 15.765625 45.015625 23.390625 
Q 45.015625 31 40.078125 35.4375 
Q 35.15625 39.890625 26.703125 39.890625 
Q 22.75 39.890625 18.8125 39.015625 
Q 14.890625 38.140625 10.796875 36.28125 
z
" id="BitstreamVeraSans-Roman-35"/>
      </defs>
      <g style="fill:#555555;" transform="translate(108.385857398 267.421875)scale(0.1 -0.1)">
       <use xlink:href="#BitstreamVeraSans-Roman-72"/>
       <use x="41.08203125" xlink:href="#BitstreamVeraSans-Roman-78"/>
       <use x="100.26171875" xlink:href="#BitstreamVeraSans-Roman-6e"/>
       <use x="163.640625" xlink:href="#BitstreamVeraSans-Roman-30"/>
       <use x="227.263671875" xlink:href="#BitstreamVeraSans-Roman-34"/>
       <use x="290.88671875" xlink:href="#BitstreamVeraSans-Roman-35"/>
       <use x="354.509765625" xlink:href="#BitstreamVeraSans-Roman-39"/>
       <use x="418.1328125" xlink:href="#BitstreamVeraSans-Roman-39"/>
       <use x="481.755859375" xlink:href="#BitstreamVeraSans-Roman-5f"/>
       <use x="531.755859375" xlink:href="#BitstreamVeraSans-Roman-63"/>
       <use x="586.736328125" xlink:href="#BitstreamVeraSans-Roman-30"/>
      </g>
     </g>
    </g>
    <g id="xtick_4">
     <g id="line2d_10">
      <path clip-path="url(#p5b4c699298)" d="M 184.356911 252 
L 184.356911 28.8 
" style="fill:none;stroke:#ffffff;stroke-linecap:square;stroke-width:0.5;"/>
     </g>
     <g id="line2d_11">
      <g>
       <use style="fill:#555555;stroke:#555555;stroke-width:0.5;" x="184.356911097" xlink:href="#md268c987fb" y="252.0"/>
      </g>
     </g>
     <g id="line2d_12">
      <g>
       <use style="fill:#555555;stroke:#555555;stroke-width:0.5;" x="184.356911097" xlink:href="#m5dcd3b4fd6" y="28.8"/>
      </g>
     </g>
     <g id="text_4">
      <!-- rxn09132_c0 -->
      <defs>
       <path d="M 40.578125 39.3125 
Q 47.65625 37.796875 51.625 33 
Q 55.609375 28.21875 55.609375 21.1875 
Q 55.609375 10.40625 48.1875 4.484375 
Q 40.765625 -1.421875 27.09375 -1.421875 
Q 22.515625 -1.421875 17.65625 -0.515625 
Q 12.796875 0.390625 7.625 2.203125 
L 7.625 11.71875 
Q 11.71875 9.328125 16.59375 8.109375 
Q 21.484375 6.890625 26.8125 6.890625 
Q 36.078125 6.890625 40.9375 10.546875 
Q 45.796875 14.203125 45.796875 21.1875 
Q 45.796875 27.640625 41.28125 31.265625 
Q 36.765625 34.90625 28.71875 34.90625 
L 20.21875 34.90625 
L 20.21875 43.015625 
L 29.109375 43.015625 
Q 36.375 43.015625 40.234375 45.921875 
Q 44.09375 48.828125 44.09375 54.296875 
Q 44.09375 59.90625 40.109375 62.90625 
Q 36.140625 65.921875 28.71875 65.921875 
Q 24.65625 65.921875 20.015625 65.03125 
Q 15.375 64.15625 9.8125 62.3125 
L 9.8125 71.09375 
Q 15.4375 72.65625 20.34375 73.4375 
Q 25.25 74.21875 29.59375 74.21875 
Q 40.828125 74.21875 47.359375 69.109375 
Q 53.90625 64.015625 53.90625 55.328125 
Q 53.90625 49.265625 50.4375 45.09375 
Q 46.96875 40.921875 40.578125 39.3125 
" id="BitstreamVeraSans-Roman-33"/>
       <path d="M 19.1875 8.296875 
L 53.609375 8.296875 
L 53.609375 0 
L 7.328125 0 
L 7.328125 8.296875 
Q 12.9375 14.109375 22.625 23.890625 
Q 32.328125 33.6875 34.8125 36.53125 
Q 39.546875 41.84375 41.421875 45.53125 
Q 43.3125 49.21875 43.3125 52.78125 
Q 43.3125 58.59375 39.234375 62.25 
Q 35.15625 65.921875 28.609375 65.921875 
Q 23.96875 65.921875 18.8125 64.3125 
Q 13.671875 62.703125 7.8125 59.421875 
L 7.8125 69.390625 
Q 13.765625 71.78125 18.9375 73 
Q 24.125 74.21875 28.421875 74.21875 
Q 39.75 74.21875 46.484375 68.546875 
Q 53.21875 62.890625 53.21875 53.421875 
Q 53.21875 48.921875 51.53125 44.890625 
Q 49.859375 40.875 45.40625 35.40625 
Q 44.1875 33.984375 37.640625 27.21875 
Q 31.109375 20.453125 19.1875 8.296875 
" id="BitstreamVeraSans-Roman-32"/>
      </defs>
      <g style="fill:#555555;" transform="translate(151.838161097 267.421875)scale(0.1 -0.1)">
       <use xlink:href="#BitstreamVeraSans-Roman-72"/>
       <use x="41.08203125" xlink:href="#BitstreamVeraSans-Roman-78"/>
       <use x="100.26171875" xlink:href="#BitstreamVeraSans-Roman-6e"/>
       <use x="163.640625" xlink:href="#BitstreamVeraSans-Roman-30"/>
       <use x="227.263671875" xlink:href="#BitstreamVeraSans-Roman-39"/>
       <use x="290.88671875" xlink:href="#BitstreamVeraSans-Roman-31"/>
       <use x="354.509765625" xlink:href="#BitstreamVeraSans-Roman-33"/>
       <use x="418.1328125" xlink:href="#BitstreamVeraSans-Roman-32"/>
       <use x="481.755859375" xlink:href="#BitstreamVeraSans-Roman-5f"/>
       <use x="531.755859375" xlink:href="#BitstreamVeraSans-Roman-63"/>
       <use x="586.736328125" xlink:href="#BitstreamVeraSans-Roman-30"/>
      </g>
     </g>
    </g>
    <g id="xtick_5">
     <g id="line2d_13">
      <path clip-path="url(#p5b4c699298)" d="M 227.809215 252 
L 227.809215 28.8 
" style="fill:none;stroke:#ffffff;stroke-linecap:square;stroke-width:0.5;"/>
     </g>
     <g id="line2d_14">
      <g>
       <use style="fill:#555555;stroke:#555555;stroke-width:0.5;" x="227.809214796" xlink:href="#md268c987fb" y="252.0"/>
      </g>
     </g>
     <g id="line2d_15">
      <g>
       <use style="fill:#555555;stroke:#555555;stroke-width:0.5;" x="227.809214796" xlink:href="#m5dcd3b4fd6" y="28.8"/>
      </g>
     </g>
     <g id="text_5">
      <!-- rxn10336_c0 -->
      <defs>
       <path d="M 33.015625 40.375 
Q 26.375 40.375 22.484375 35.828125 
Q 18.609375 31.296875 18.609375 23.390625 
Q 18.609375 15.53125 22.484375 10.953125 
Q 26.375 6.390625 33.015625 6.390625 
Q 39.65625 6.390625 43.53125 10.953125 
Q 47.40625 15.53125 47.40625 23.390625 
Q 47.40625 31.296875 43.53125 35.828125 
Q 39.65625 40.375 33.015625 40.375 
M 52.59375 71.296875 
L 52.59375 62.3125 
Q 48.875 64.0625 45.09375 64.984375 
Q 41.3125 65.921875 37.59375 65.921875 
Q 27.828125 65.921875 22.671875 59.328125 
Q 17.53125 52.734375 16.796875 39.40625 
Q 19.671875 43.65625 24.015625 45.921875 
Q 28.375 48.1875 33.59375 48.1875 
Q 44.578125 48.1875 50.953125 41.515625 
Q 57.328125 34.859375 57.328125 23.390625 
Q 57.328125 12.15625 50.6875 5.359375 
Q 44.046875 -1.421875 33.015625 -1.421875 
Q 20.359375 -1.421875 13.671875 8.265625 
Q 6.984375 17.96875 6.984375 36.375 
Q 6.984375 53.65625 15.1875 63.9375 
Q 23.390625 74.21875 37.203125 74.21875 
Q 40.921875 74.21875 44.703125 73.484375 
Q 48.484375 72.75 52.59375 71.296875 
" id="BitstreamVeraSans-Roman-36"/>
      </defs>
      <g style="fill:#555555;" transform="translate(195.290464796 267.421875)scale(0.1 -0.1)">
       <use xlink:href="#BitstreamVeraSans-Roman-72"/>
       <use x="41.08203125" xlink:href="#BitstreamVeraSans-Roman-78"/>
       <use x="100.26171875" xlink:href="#BitstreamVeraSans-Roman-6e"/>
       <use x="163.640625" xlink:href="#BitstreamVeraSans-Roman-31"/>
       <use x="227.263671875" xlink:href="#BitstreamVeraSans-Roman-30"/>
       <use x="290.88671875" xlink:href="#BitstreamVeraSans-Roman-33"/>
       <use x="354.509765625" xlink:href="#BitstreamVeraSans-Roman-33"/>
       <use x="418.1328125" xlink:href="#BitstreamVeraSans-Roman-36"/>
       <use x="481.755859375" xlink:href="#BitstreamVeraSans-Roman-5f"/>
       <use x="531.755859375" xlink:href="#BitstreamVeraSans-Roman-63"/>
       <use x="586.736328125" xlink:href="#BitstreamVeraSans-Roman-30"/>
      </g>
     </g>
    </g>
    <g id="xtick_6">
     <g id="line2d_16">
      <path clip-path="url(#p5b4c699298)" d="M 271.261518 252 
L 271.261518 28.8 
" style="fill:none;stroke:#ffffff;stroke-linecap:square;stroke-width:0.5;"/>
     </g>
     <g id="line2d_17">
      <g>
       <use style="fill:#555555;stroke:#555555;stroke-width:0.5;" x="271.261518494" xlink:href="#md268c987fb" y="252.0"/>
      </g>
     </g>
     <g id="line2d_18">
      <g>
       <use style="fill:#555555;stroke:#555555;stroke-width:0.5;" x="271.261518494" xlink:href="#m5dcd3b4fd6" y="28.8"/>
      </g>
     </g>
     <g id="text_6">
      <!-- rxn00804_c0 -->
      <g style="fill:#555555;" transform="translate(238.742768494 267.421875)scale(0.1 -0.1)">
       <use xlink:href="#BitstreamVeraSans-Roman-72"/>
       <use x="41.08203125" xlink:href="#BitstreamVeraSans-Roman-78"/>
       <use x="100.26171875" xlink:href="#BitstreamVeraSans-Roman-6e"/>
       <use x="163.640625" xlink:href="#BitstreamVeraSans-Roman-30"/>
       <use x="227.263671875" xlink:href="#BitstreamVeraSans-Roman-30"/>
       <use x="290.88671875" xlink:href="#BitstreamVeraSans-Roman-38"/>
       <use x="354.509765625" xlink:href="#BitstreamVeraSans-Roman-30"/>
       <use x="418.1328125" xlink:href="#BitstreamVeraSans-Roman-34"/>
       <use x="481.755859375" xlink:href="#BitstreamVeraSans-Roman-5f"/>
       <use x="531.755859375" xlink:href="#BitstreamVeraSans-Roman-63"/>
       <use x="586.736328125" xlink:href="#BitstreamVeraSans-Roman-30"/>
      </g>
     </g>
    </g>
    <g id="xtick_7">
     <g id="line2d_19">
      <path clip-path="url(#p5b4c699298)" d="M 314.713822 252 
L 314.713822 28.8 
" style="fill:none;stroke:#ffffff;stroke-linecap:square;stroke-width:0.5;"/>
     </g>
     <g id="line2d_20">
      <g>
       <use style="fill:#555555;stroke:#555555;stroke-width:0.5;" x="314.713822193" xlink:href="#md268c987fb" y="252.0"/>
      </g>
     </g>
     <g id="line2d_21">
      <g>
       <use style="fill:#555555;stroke:#555555;stroke-width:0.5;" x="314.713822193" xlink:href="#m5dcd3b4fd6" y="28.8"/>
      </g>
     </g>
     <g id="text_7">
      <!-- rxn01299_c0 -->
      <g style="fill:#555555;" transform="translate(282.195072193 267.421875)scale(0.1 -0.1)">
       <use xlink:href="#BitstreamVeraSans-Roman-72"/>
       <use x="41.08203125" xlink:href="#BitstreamVeraSans-Roman-78"/>
       <use x="100.26171875" xlink:href="#BitstreamVeraSans-Roman-6e"/>
       <use x="163.640625" xlink:href="#BitstreamVeraSans-Roman-30"/>
       <use x="227.263671875" xlink:href="#BitstreamVeraSans-Roman-31"/>
       <use x="290.88671875" xlink:href="#BitstreamVeraSans-Roman-32"/>
       <use x="354.509765625" xlink:href="#BitstreamVeraSans-Roman-39"/>
       <use x="418.1328125" xlink:href="#BitstreamVeraSans-Roman-39"/>
       <use x="481.755859375" xlink:href="#BitstreamVeraSans-Roman-5f"/>
       <use x="531.755859375" xlink:href="#BitstreamVeraSans-Roman-63"/>
       <use x="586.736328125" xlink:href="#BitstreamVeraSans-Roman-30"/>
      </g>
     </g>
    </g>
    <g id="xtick_8">
     <g id="line2d_22">
      <path clip-path="url(#p5b4c699298)" d="M 358.166126 252 
L 358.166126 28.8 
" style="fill:none;stroke:#ffffff;stroke-linecap:square;stroke-width:0.5;"/>
     </g>
     <g id="line2d_23">
      <g>
       <use style="fill:#555555;stroke:#555555;stroke-width:0.5;" x="358.166125892" xlink:href="#md268c987fb" y="252.0"/>
      </g>
     </g>
     <g id="line2d_24">
      <g>
       <use style="fill:#555555;stroke:#555555;stroke-width:0.5;" x="358.166125892" xlink:href="#m5dcd3b4fd6" y="28.8"/>
      </g>
     </g>
     <g id="text_8">
      <!-- rxn00346_c0 -->
      <g style="fill:#555555;" transform="translate(325.647375892 267.421875)scale(0.1 -0.1)">
       <use xlink:href="#BitstreamVeraSans-Roman-72"/>
       <use x="41.08203125" xlink:href="#BitstreamVeraSans-Roman-78"/>
       <use x="100.26171875" xlink:href="#BitstreamVeraSans-Roman-6e"/>
       <use x="163.640625" xlink:href="#BitstreamVeraSans-Roman-30"/>
       <use x="227.263671875" xlink:href="#BitstreamVeraSans-Roman-30"/>
       <use x="290.88671875" xlink:href="#BitstreamVeraSans-Roman-33"/>
       <use x="354.509765625" xlink:href="#BitstreamVeraSans-Roman-34"/>
       <use x="418.1328125" xlink:href="#BitstreamVeraSans-Roman-36"/>
       <use x="481.755859375" xlink:href="#BitstreamVeraSans-Roman-5f"/>
       <use x="531.755859375" xlink:href="#BitstreamVeraSans-Roman-63"/>
       <use x="586.736328125" xlink:href="#BitstreamVeraSans-Roman-30"/>
      </g>
     </g>
    </g>
   </g>
   <g id="matplotlib.axis_2">
    <g id="ytick_1">
     <g id="line2d_25">
      <path clip-path="url(#p5b4c699298)" d="M 54 252 
L 388.8 252 
" style="fill:none;stroke:#ffffff;stroke-linecap:square;stroke-width:0.5;"/>
     </g>
     <g id="line2d_26">
      <defs>
       <path d="M 0 0 
L -4 0 
" id="mf29d8b834d" style="stroke:#555555;stroke-width:0.5;"/>
      </defs>
      <g>
       <use style="fill:#555555;stroke:#555555;stroke-width:0.5;" x="54.0" xlink:href="#mf29d8b834d" y="252.0"/>
      </g>
     </g>
     <g id="line2d_27">
      <defs>
       <path d="M 0 0 
L 4 0 
" id="m108060d287" style="stroke:#555555;stroke-width:0.5;"/>
      </defs>
      <g>
       <use style="fill:#555555;stroke:#555555;stroke-width:0.5;" x="388.8" xlink:href="#m108060d287" y="252.0"/>
      </g>
     </g>
     <g id="text_9">
      <!-- −1000 -->
      <defs>
       <path d="M 10.59375 35.5 
L 73.1875 35.5 
L 73.1875 27.203125 
L 10.59375 27.203125 
z
" id="BitstreamVeraSans-Roman-2212"/>
      </defs>
      <g style="fill:#555555;" transform="translate(12.1703125 254.759375)scale(0.1 -0.1)">
       <use xlink:href="#BitstreamVeraSans-Roman-2212"/>
       <use x="83.7890625" xlink:href="#BitstreamVeraSans-Roman-31"/>
       <use x="147.412109375" xlink:href="#BitstreamVeraSans-Roman-30"/>
       <use x="211.03515625" xlink:href="#BitstreamVeraSans-Roman-30"/>
       <use x="274.658203125" xlink:href="#BitstreamVeraSans-Roman-30"/>
      </g>
     </g>
    </g>
    <g id="ytick_2">
     <g id="line2d_28">
      <path clip-path="url(#p5b4c699298)" d="M 54 196.2 
L 388.8 196.2 
" style="fill:none;stroke:#ffffff;stroke-linecap:square;stroke-width:0.5;"/>
     </g>
     <g id="line2d_29">
      <g>
       <use style="fill:#555555;stroke:#555555;stroke-width:0.5;" x="54.0" xlink:href="#mf29d8b834d" y="196.2"/>
      </g>
     </g>
     <g id="line2d_30">
      <g>
       <use style="fill:#555555;stroke:#555555;stroke-width:0.5;" x="388.8" xlink:href="#m108060d287" y="196.2"/>
      </g>
     </g>
     <g id="text_10">
      <!-- −500 -->
      <g style="fill:#555555;" transform="translate(18.5328125 198.959375)scale(0.1 -0.1)">
       <use xlink:href="#BitstreamVeraSans-Roman-2212"/>
       <use x="83.7890625" xlink:href="#BitstreamVeraSans-Roman-35"/>
       <use x="147.412109375" xlink:href="#BitstreamVeraSans-Roman-30"/>
       <use x="211.03515625" xlink:href="#BitstreamVeraSans-Roman-30"/>
      </g>
     </g>
    </g>
    <g id="ytick_3">
     <g id="line2d_31">
      <path clip-path="url(#p5b4c699298)" d="M 54 140.4 
L 388.8 140.4 
" style="fill:none;stroke:#ffffff;stroke-linecap:square;stroke-width:0.5;"/>
     </g>
     <g id="line2d_32">
      <g>
       <use style="fill:#555555;stroke:#555555;stroke-width:0.5;" x="54.0" xlink:href="#mf29d8b834d" y="140.4"/>
      </g>
     </g>
     <g id="line2d_33">
      <g>
       <use style="fill:#555555;stroke:#555555;stroke-width:0.5;" x="388.8" xlink:href="#m108060d287" y="140.4"/>
      </g>
     </g>
     <g id="text_11">
      <!-- 0 -->
      <g style="fill:#555555;" transform="translate(39.6375 143.159375)scale(0.1 -0.1)">
       <use xlink:href="#BitstreamVeraSans-Roman-30"/>
      </g>
     </g>
    </g>
    <g id="ytick_4">
     <g id="line2d_34">
      <path clip-path="url(#p5b4c699298)" d="M 54 84.6 
L 388.8 84.6 
" style="fill:none;stroke:#ffffff;stroke-linecap:square;stroke-width:0.5;"/>
     </g>
     <g id="line2d_35">
      <g>
       <use style="fill:#555555;stroke:#555555;stroke-width:0.5;" x="54.0" xlink:href="#mf29d8b834d" y="84.6"/>
      </g>
     </g>
     <g id="line2d_36">
      <g>
       <use style="fill:#555555;stroke:#555555;stroke-width:0.5;" x="388.8" xlink:href="#m108060d287" y="84.6"/>
      </g>
     </g>
     <g id="text_12">
      <!-- 500 -->
      <g style="fill:#555555;" transform="translate(26.9125 87.359375)scale(0.1 -0.1)">
       <use xlink:href="#BitstreamVeraSans-Roman-35"/>
       <use x="63.623046875" xlink:href="#BitstreamVeraSans-Roman-30"/>
       <use x="127.24609375" xlink:href="#BitstreamVeraSans-Roman-30"/>
      </g>
     </g>
    </g>
    <g id="ytick_5">
     <g id="line2d_37">
      <path clip-path="url(#p5b4c699298)" d="M 54 28.8 
L 388.8 28.8 
" style="fill:none;stroke:#ffffff;stroke-linecap:square;stroke-width:0.5;"/>
     </g>
     <g id="line2d_38">
      <g>
       <use style="fill:#555555;stroke:#555555;stroke-width:0.5;" x="54.0" xlink:href="#mf29d8b834d" y="28.8"/>
      </g>
     </g>
     <g id="line2d_39">
      <g>
       <use style="fill:#555555;stroke:#555555;stroke-width:0.5;" x="388.8" xlink:href="#m108060d287" y="28.8"/>
      </g>
     </g>
     <g id="text_13">
      <!-- 1000 -->
      <g style="fill:#555555;" transform="translate(20.55 31.559375)scale(0.1 -0.1)">
       <use xlink:href="#BitstreamVeraSans-Roman-31"/>
       <use x="63.623046875" xlink:href="#BitstreamVeraSans-Roman-30"/>
       <use x="127.24609375" xlink:href="#BitstreamVeraSans-Roman-30"/>
       <use x="190.869140625" xlink:href="#BitstreamVeraSans-Roman-30"/>
      </g>
     </g>
    </g>
   </g>
   <g id="line2d_40">
    <path clip-path="url(#p5b4c699298)" d="M 54 148.484368 
L 54.217262 147.790641 
L 54.434523 144.180741 
L 54.651785 143.526693 
L 55.086308 143.482707 
L 55.303569 143.265205 
L 55.520831 142.884614 
L 55.738092 142.835282 
L 55.955354 141.956247 
L 56.389877 141.91137 
L 56.8244 141.407581 
L 57.258923 141.198306 
L 57.693446 141.155685 
L 57.910707 140.898978 
L 58.127969 140.875396 
L 58.562492 140.651895 
L 58.997015 140.651895 
L 59.214276 140.493559 
L 210.211032 140.4 
L 211.297339 140.337628 
L 224.115769 140.275256 
L 224.550292 140.212883 
L 229.112784 140.15051 
L 229.547307 140.077294 
L 229.764568 140.077294 
L 229.98183 139.901022 
L 235.196106 139.89621 
L 238.237768 139.833838 
L 238.672291 139.756548 
L 239.106814 139.756548 
L 239.324075 139.542063 
L 240.627644 139.449208 
L 241.279429 139.392419 
L 241.713952 139.392419 
L 241.931213 138.88863 
L 242.365737 138.88863 
L 242.582998 138.687418 
L 255.618689 138.680716 
L 255.835951 138.38484 
L 257.356781 138.38484 
L 257.574043 138.2244 
L 257.791304 138.2244 
L 258.008566 137.969204 
L 258.443089 137.88105 
L 258.877612 137.287504 
L 259.094873 136.080378 
L 261.050227 135.997248 
L 261.267489 134.856707 
L 262.353796 134.66959 
L 263.005581 134.66959 
L 263.222842 134.234585 
L 264.091888 134.234585 
L 264.30915 131.140441 
L 264.960934 131.140441 
L 265.178196 120.313307 
L 265.829981 120.256935 
L 266.264504 120.256935 
L 266.481765 88.642184 
L 266.699027 88.642184 
L 266.916288 84.874409 
L 268.002596 84.874409 
L 268.219857 84.584407 
L 268.437119 39.48386 
L 268.65438 36.884368 
L 268.871642 36.190641 
L 270.175211 36.190641 
L 270.392472 32.845348 
L 270.826995 32.768638 
L 271.696042 32.49532 
L 271.913303 32.435445 
L 272.130565 32.093218 
L 272.347826 31.284614 
L 273.868657 31.235282 
L 274.30318 30.512224 
L 277.996626 30.446609 
L 278.431149 30.31137 
L 279.951979 30.31137 
L 280.169241 30.059475 
L 280.821025 30.008434 
L 281.255548 29.629492 
L 282.776379 29.629492 
L 282.99364 29.348816 
L 283.645425 29.284058 
L 284.731733 29.213248 
L 285.166256 29.122706 
L 286.687086 29.051895 
L 287.121609 28.961352 
L 297.984685 28.8 
L 388.8 28.8 
L 388.8 28.8 
" style="fill:none;stroke:#e24a33;stroke-linecap:square;"/>
   </g>
   <g id="line2d_41">
    <path clip-path="url(#p5b4c699298)" d="M 54 252 
L 54.217262 252 
L 54.434523 149.659559 
L 54.651785 146.653387 
L 55.086308 146.565415 
L 55.303569 146.13041 
L 55.520831 252 
L 55.738092 252 
L 55.955354 143.512496 
L 56.172615 252 
L 56.389877 252 
L 56.607138 142.830796 
L 57.041661 142.115873 
L 57.258923 251.968813 
L 57.476184 251.968813 
L 57.693446 141.91137 
L 57.910707 141.397957 
L 58.127969 141.350792 
L 58.562492 140.90379 
L 58.997015 140.90379 
L 59.214276 252 
L 59.431538 140.587117 
L 59.866061 140.524744 
L 60.300584 140.524744 
L 60.517846 144.802752 
L 60.735107 140.462372 
L 63.99403 140.462372 
L 64.211291 252 
L 66.601168 252 
L 66.81843 251.515942 
L 67.035691 251.515942 
L 67.252953 251.170508 
L 67.470214 250.48863 
L 67.687476 250.48863 
L 67.904737 250.287776 
L 68.33926 250.287776 
L 68.556522 249.564718 
L 68.773783 244.609359 
L 68.991045 144.753429 
L 69.860091 144.740623 
L 70.077352 142.5756 
L 70.294614 142.5756 
L 70.511875 142.115873 
L 70.946398 142.112582 
L 71.16366 140.64949 
L 71.380921 140.64949 
L 71.815445 140.4 
L 219.553277 140.4 
L 219.770539 251.937628 
L 219.9878 251.937628 
L 220.205062 140.4 
L 220.639585 140.337628 
L 224.115769 140.337628 
L 224.33303 251.906441 
L 224.550292 140.4 
L 228.678261 140.4 
L 229.112784 140.275256 
L 229.330045 251.745089 
L 229.547307 140.238648 
L 237.368722 140.148105 
L 237.585983 140.4 
L 237.803245 140.4 
L 238.020506 140.116919 
L 239.106814 140.078274 
L 239.541337 139.971032 
L 241.713952 139.89621 
L 241.931213 139.644315 
L 242.365737 139.644315 
L 242.582998 140.4 
L 242.80026 140.4 
L 243.017521 248.706782 
L 243.234783 248.706782 
L 243.452044 140.4 
L 243.886567 140.4 
L 244.103829 139.542063 
L 255.401428 139.542063 
L 255.618689 143.032797 
L 255.835951 250.992419 
L 256.053212 139.392419 
L 257.356781 139.392419 
L 257.574043 140.4 
L 258.225827 140.4 
L 258.443089 139.140525 
L 258.66035 141.870034 
L 258.877612 138.843753 
L 259.094873 140.4 
L 260.832966 140.368813 
L 261.050227 251.968813 
L 261.267489 137.628354 
L 261.48475 140.4 
L 261.702012 140.4 
L 261.919273 137.534795 
L 263.005581 137.534795 
L 263.222842 137.317293 
L 264.091888 137.317293 
L 264.30915 136.619259 
L 264.960934 136.619259 
L 265.178196 130.356654 
L 266.047242 130.328468 
L 266.264504 130.328468 
L 266.481765 140.4 
L 268.002596 140.4 
L 268.437119 252 
L 268.65438 140.4 
L 268.871642 252 
L 269.088903 140.4 
L 270.175211 140.4 
L 270.392472 252 
L 271.47878 252 
L 271.696042 140.4 
L 271.913303 252 
L 272.130565 142.115873 
L 272.347826 252 
L 272.565088 252 
L 272.782349 145.431602 
L 272.999611 140.4 
L 273.216872 252 
L 273.434134 252 
L 273.651395 140.4 
L 274.085918 140.4 
L 274.30318 252 
L 274.737703 252 
L 274.954964 140.4 
L 277.996626 140.4 
L 278.213887 140.238648 
L 278.431149 140.4 
L 279.951979 140.4 
L 280.169241 252 
L 280.603764 252 
L 280.821025 244.769417 
L 281.038287 142.41516 
L 281.255548 252 
L 281.47281 250.287776 
L 281.690071 140.4 
L 282.99364 140.4 
L 283.210902 252 
L 283.645425 252 
L 283.862687 140.4 
L 284.514471 140.4 
L 284.731733 251.968813 
L 284.948994 140.238648 
L 285.383517 140.238648 
L 285.600779 252 
L 286.252563 252 
L 286.469825 140.722706 
L 286.687086 250.992419 
L 286.904348 250.287776 
L 287.121609 243.722337 
L 287.338871 140.4 
L 287.773394 140.4 
L 287.990655 252 
L 288.64244 252 
L 288.859701 140.4 
L 289.294225 140.4 
L 289.511486 251.201694 
L 289.728748 249.48947 
L 289.946009 140.462372 
L 290.597794 140.4 
L 290.815055 140.275256 
L 291.032317 139.601694 
L 292.553147 139.601694 
L 292.770409 252 
L 347.520311 251.906441 
L 347.954835 251.745089 
L 348.172096 251.555566 
L 349.692927 251.49621 
L 350.12745 250.740525 
L 350.344711 250.126423 
L 350.561973 250.126423 
L 350.779234 248.364555 
L 350.996496 248.364555 
L 351.431019 248.031362 
L 351.865542 247.906617 
L 352.082803 244.609359 
L 352.300065 244.609359 
L 352.517326 243.560983 
L 352.734588 241.31614 
L 352.951849 160.051845 
L 353.169111 140.4 
L 385.758339 140.337628 
L 385.9756 140.244069 
L 386.192862 139.915942 
L 386.410123 139.851184 
L 386.627385 138.88863 
L 386.844646 138.88863 
L 387.279169 138.377326 
L 387.496431 137.964718 
L 388.365477 137.915386 
L 388.582738 133.009359 
L 388.8 132.315632 
L 388.8 132.315632 
" style="fill:none;stroke:#348abd;stroke-linecap:square;"/>
   </g>
   <g id="patch_3">
    <path d="M 54 28.8 
L 388.8 28.8 
" style="fill:none;stroke:#ffffff;stroke-linecap:square;stroke-linejoin:miter;"/>
   </g>
   <g id="patch_4">
    <path d="M 388.8 252 
L 388.8 28.8 
" style="fill:none;stroke:#ffffff;stroke-linecap:square;stroke-linejoin:miter;"/>
   </g>
   <g id="patch_5">
    <path d="M 54 252 
L 388.8 252 
" style="fill:none;stroke:#ffffff;stroke-linecap:square;stroke-linejoin:miter;"/>
   </g>
   <g id="patch_6">
    <path d="M 54 252 
L 54 28.8 
" style="fill:none;stroke:#ffffff;stroke-linecap:square;stroke-linejoin:miter;"/>
   </g>
   <g id="legend_1">
    <g id="patch_7">
     <path d="M 279.13875 73.6275 
L 382.8 73.6275 
L 382.8 34.8 
L 279.13875 34.8 
z
" style="fill:#e5e5e5;stroke:#ffffff;stroke-linejoin:miter;stroke-width:0.5;"/>
    </g>
    <g id="line2d_42">
     <path d="M 287.53875 44.518125 
L 304.33875 44.518125 
" style="fill:none;stroke:#e24a33;stroke-linecap:square;"/>
    </g>
    <g id="line2d_43"/>
    <g id="text_14">
     <!-- maximum -->
     <defs>
      <path d="M 34.28125 27.484375 
Q 23.390625 27.484375 19.1875 25 
Q 14.984375 22.515625 14.984375 16.5 
Q 14.984375 11.71875 18.140625 8.90625 
Q 21.296875 6.109375 26.703125 6.109375 
Q 34.1875 6.109375 38.703125 11.40625 
Q 43.21875 16.703125 43.21875 25.484375 
L 43.21875 27.484375 
z
M 52.203125 31.203125 
L 52.203125 0 
L 43.21875 0 
L 43.21875 8.296875 
Q 40.140625 3.328125 35.546875 0.953125 
Q 30.953125 -1.421875 24.3125 -1.421875 
Q 15.921875 -1.421875 10.953125 3.296875 
Q 6 8.015625 6 15.921875 
Q 6 25.140625 12.171875 29.828125 
Q 18.359375 34.515625 30.609375 34.515625 
L 43.21875 34.515625 
L 43.21875 35.40625 
Q 43.21875 41.609375 39.140625 45 
Q 35.0625 48.390625 27.6875 48.390625 
Q 23 48.390625 18.546875 47.265625 
Q 14.109375 46.140625 10.015625 43.890625 
L 10.015625 52.203125 
Q 14.9375 54.109375 19.578125 55.046875 
Q 24.21875 56 28.609375 56 
Q 40.484375 56 46.34375 49.84375 
Q 52.203125 43.703125 52.203125 31.203125 
" id="BitstreamVeraSans-Roman-61"/>
      <path d="M 52 44.1875 
Q 55.375 50.25 60.0625 53.125 
Q 64.75 56 71.09375 56 
Q 79.640625 56 84.28125 50.015625 
Q 88.921875 44.046875 88.921875 33.015625 
L 88.921875 0 
L 79.890625 0 
L 79.890625 32.71875 
Q 79.890625 40.578125 77.09375 44.375 
Q 74.3125 48.1875 68.609375 48.1875 
Q 61.625 48.1875 57.5625 43.546875 
Q 53.515625 38.921875 53.515625 30.90625 
L 53.515625 0 
L 44.484375 0 
L 44.484375 32.71875 
Q 44.484375 40.625 41.703125 44.40625 
Q 38.921875 48.1875 33.109375 48.1875 
Q 26.21875 48.1875 22.15625 43.53125 
Q 18.109375 38.875 18.109375 30.90625 
L 18.109375 0 
L 9.078125 0 
L 9.078125 54.6875 
L 18.109375 54.6875 
L 18.109375 46.1875 
Q 21.1875 51.21875 25.484375 53.609375 
Q 29.78125 56 35.6875 56 
Q 41.65625 56 45.828125 52.96875 
Q 50 49.953125 52 44.1875 
" id="BitstreamVeraSans-Roman-6d"/>
      <path d="M 8.5 21.578125 
L 8.5 54.6875 
L 17.484375 54.6875 
L 17.484375 21.921875 
Q 17.484375 14.15625 20.5 10.265625 
Q 23.53125 6.390625 29.59375 6.390625 
Q 36.859375 6.390625 41.078125 11.03125 
Q 45.3125 15.671875 45.3125 23.6875 
L 45.3125 54.6875 
L 54.296875 54.6875 
L 54.296875 0 
L 45.3125 0 
L 45.3125 8.40625 
Q 42.046875 3.421875 37.71875 1 
Q 33.40625 -1.421875 27.6875 -1.421875 
Q 18.265625 -1.421875 13.375 4.4375 
Q 8.5 10.296875 8.5 21.578125 
" id="BitstreamVeraSans-Roman-75"/>
      <path d="M 9.421875 54.6875 
L 18.40625 54.6875 
L 18.40625 0 
L 9.421875 0 
z
M 9.421875 75.984375 
L 18.40625 75.984375 
L 18.40625 64.59375 
L 9.421875 64.59375 
z
" id="BitstreamVeraSans-Roman-69"/>
     </defs>
     <g transform="translate(317.53875 48.718125)scale(0.12 -0.12)">
      <use xlink:href="#BitstreamVeraSans-Roman-6d"/>
      <use x="97.412109375" xlink:href="#BitstreamVeraSans-Roman-61"/>
      <use x="158.69140625" xlink:href="#BitstreamVeraSans-Roman-78"/>
      <use x="217.87109375" xlink:href="#BitstreamVeraSans-Roman-69"/>
      <use x="245.654296875" xlink:href="#BitstreamVeraSans-Roman-6d"/>
      <use x="343.06640625" xlink:href="#BitstreamVeraSans-Roman-75"/>
      <use x="406.4453125" xlink:href="#BitstreamVeraSans-Roman-6d"/>
     </g>
    </g>
    <g id="line2d_44">
     <path d="M 287.53875 62.131875 
L 304.33875 62.131875 
" style="fill:none;stroke:#348abd;stroke-linecap:square;"/>
    </g>
    <g id="line2d_45"/>
    <g id="text_15">
     <!-- minimum -->
     <g transform="translate(317.53875 66.331875)scale(0.12 -0.12)">
      <use xlink:href="#BitstreamVeraSans-Roman-6d"/>
      <use x="97.412109375" xlink:href="#BitstreamVeraSans-Roman-69"/>
      <use x="125.1953125" xlink:href="#BitstreamVeraSans-Roman-6e"/>
      <use x="188.57421875" xlink:href="#BitstreamVeraSans-Roman-69"/>
      <use x="216.357421875" xlink:href="#BitstreamVeraSans-Roman-6d"/>
      <use x="313.76953125" xlink:href="#BitstreamVeraSans-Roman-75"/>
      <use x="377.1484375" xlink:href="#BitstreamVeraSans-Roman-6d"/>
     </g>
    </g>
   </g>
  </g>
 </g>
 <defs>
  <clipPath id="p5b4c699298">
   <rect height="223.2" width="334.8" x="54.0" y="28.8"/>
  </clipPath>
 </defs>
</svg>
