<?xml version="1.0" encoding="utf-8" standalone="no"?>
<!DOCTYPE svg PUBLIC "-//W3C//DTD SVG 1.1//EN"
  "http://www.w3.org/Graphics/SVG/1.1/DTD/svg11.dtd">
<!-- Created with matplotlib (http://matplotlib.org/) -->
<svg height="288pt" version="1.1" viewBox="0 0 432 288" width="432pt" xmlns="http://www.w3.org/2000/svg" xmlns:xlink="http://www.w3.org/1999/xlink">
 <defs>
  <style type="text/css">
*{stroke-linecap:butt;stroke-linejoin:round;stroke-miterlimit:100000;}
  </style>
 </defs>
 <g id="figure_1">
  <g id="patch_1">
   <path d="M 0 288 
L 432 288 
L 432 0 
L 0 0 
z
" style="fill:#ffffff;"/>
  </g>
  <g id="axes_1">
   <g id="patch_2">
    <path d="M 54 252 
L 388.8 252 
L 388.8 28.8 
L 54 28.8 
z
" style="fill:#e5e5e5;"/>
   </g>
   <g id="matplotlib.axis_1">
    <g id="xtick_1">
     <g id="line2d_1">
      <path clip-path="url(#p07570a458a)" d="M 54 252 
L 54 28.8 
" style="fill:none;stroke:#ffffff;stroke-linecap:square;stroke-width:0.5;"/>
     </g>
     <g id="line2d_2">
      <defs>
       <path d="M 0 0 
L 0 4 
" id="m026e917fa3" style="stroke:#555555;stroke-width:0.5;"/>
      </defs>
      <g>
       <use style="fill:#555555;stroke:#555555;stroke-width:0.5;" x="54.0" xlink:href="#m026e917fa3" y="252.0"/>
      </g>
     </g>
     <g id="line2d_3">
      <defs>
       <path d="M 0 0 
L 0 -4 
" id="m8e4fb757b5" style="stroke:#555555;stroke-width:0.5;"/>
      </defs>
      <g>
       <use style="fill:#555555;stroke:#555555;stroke-width:0.5;" x="54.0" xlink:href="#m8e4fb757b5" y="28.8"/>
      </g>
     </g>
     <g id="text_1">
      <!-- rxn00285_c0 -->
      <defs>
       <path d="M 31.78125 34.625 
Q 24.75 34.625 20.71875 30.859375 
Q 16.703125 27.09375 16.703125 20.515625 
Q 16.703125 13.921875 20.71875 10.15625 
Q 24.75 6.390625 31.78125 6.390625 
Q 38.8125 6.390625 42.859375 10.171875 
Q 46.921875 13.96875 46.921875 20.515625 
Q 46.921875 27.09375 42.890625 30.859375 
Q 38.875 34.625 31.78125 34.625 
M 21.921875 38.8125 
Q 15.578125 40.375 12.03125 44.71875 
Q 8.5 49.078125 8.5 55.328125 
Q 8.5 64.0625 14.71875 69.140625 
Q 20.953125 74.21875 31.78125 74.21875 
Q 42.671875 74.21875 48.875 69.140625 
Q 55.078125 64.0625 55.078125 55.328125 
Q 55.078125 49.078125 51.53125 44.71875 
Q 48 40.375 41.703125 38.8125 
Q 48.828125 37.15625 52.796875 32.3125 
Q 56.78125 27.484375 56.78125 20.515625 
Q 56.78125 9.90625 50.3125 4.234375 
Q 43.84375 -1.421875 31.78125 -1.421875 
Q 19.734375 -1.421875 13.25 4.234375 
Q 6.78125 9.90625 6.78125 20.515625 
Q 6.78125 27.484375 10.78125 32.3125 
Q 14.796875 37.15625 21.921875 38.8125 
M 18.3125 54.390625 
Q 18.3125 48.734375 21.84375 45.5625 
Q 25.390625 42.390625 31.78125 42.390625 
Q 38.140625 42.390625 41.71875 45.5625 
Q 45.3125 48.734375 45.3125 54.390625 
Q 45.3125 60.0625 41.71875 63.234375 
Q 38.140625 66.40625 31.78125 66.40625 
Q 25.390625 66.40625 21.84375 63.234375 
Q 18.3125 60.0625 18.3125 54.390625 
" id="BitstreamVeraSans-Roman-38"/>
       <path d="M 48.78125 52.59375 
L 48.78125 44.1875 
Q 44.96875 46.296875 41.140625 47.34375 
Q 37.3125 48.390625 33.40625 48.390625 
Q 24.65625 48.390625 19.8125 42.84375 
Q 14.984375 37.3125 14.984375 27.296875 
Q 14.984375 17.28125 19.8125 11.734375 
Q 24.65625 6.203125 33.40625 6.203125 
Q 37.3125 6.203125 41.140625 7.25 
Q 44.96875 8.296875 48.78125 10.40625 
L 48.78125 2.09375 
Q 45.015625 0.34375 40.984375 -0.53125 
Q 36.96875 -1.421875 32.421875 -1.421875 
Q 20.0625 -1.421875 12.78125 6.34375 
Q 5.515625 14.109375 5.515625 27.296875 
Q 5.515625 40.671875 12.859375 48.328125 
Q 20.21875 56 33.015625 56 
Q 37.15625 56 41.109375 55.140625 
Q 45.0625 54.296875 48.78125 52.59375 
" id="BitstreamVeraSans-Roman-63"/>
       <path d="M 10.796875 72.90625 
L 49.515625 72.90625 
L 49.515625 64.59375 
L 19.828125 64.59375 
L 19.828125 46.734375 
Q 21.96875 47.46875 24.109375 47.828125 
Q 26.265625 48.1875 28.421875 48.1875 
Q 40.625 48.1875 47.75 41.5 
Q 54.890625 34.8125 54.890625 23.390625 
Q 54.890625 11.625 47.5625 5.09375 
Q 40.234375 -1.421875 26.90625 -1.421875 
Q 22.3125 -1.421875 17.546875 -0.640625 
Q 12.796875 0.140625 7.71875 1.703125 
L 7.71875 11.625 
Q 12.109375 9.234375 16.796875 8.0625 
Q 21.484375 6.890625 26.703125 6.890625 
Q 35.15625 6.890625 40.078125 11.328125 
Q 45.015625 15.765625 45.015625 23.390625 
Q 45.015625 31 40.078125 35.4375 
Q 35.15625 39.890625 26.703125 39.890625 
Q 22.75 39.890625 18.8125 39.015625 
Q 14.890625 38.140625 10.796875 36.28125 
z
" id="BitstreamVeraSans-Roman-35"/>
       <path d="M 31.78125 66.40625 
Q 24.171875 66.40625 20.328125 58.90625 
Q 16.5 51.421875 16.5 36.375 
Q 16.5 21.390625 20.328125 13.890625 
Q 24.171875 6.390625 31.78125 6.390625 
Q 39.453125 6.390625 43.28125 13.890625 
Q 47.125 21.390625 47.125 36.375 
Q 47.125 51.421875 43.28125 58.90625 
Q 39.453125 66.40625 31.78125 66.40625 
M 31.78125 74.21875 
Q 44.046875 74.21875 50.515625 64.515625 
Q 56.984375 54.828125 56.984375 36.375 
Q 56.984375 17.96875 50.515625 8.265625 
Q 44.046875 -1.421875 31.78125 -1.421875 
Q 19.53125 -1.421875 13.0625 8.265625 
Q 6.59375 17.96875 6.59375 36.375 
Q 6.59375 54.828125 13.0625 64.515625 
Q 19.53125 74.21875 31.78125 74.21875 
" id="BitstreamVeraSans-Roman-30"/>
       <path d="M 41.109375 46.296875 
Q 39.59375 47.171875 37.8125 47.578125 
Q 36.03125 48 33.890625 48 
Q 26.265625 48 22.1875 43.046875 
Q 18.109375 38.09375 18.109375 28.8125 
L 18.109375 0 
L 9.078125 0 
L 9.078125 54.6875 
L 18.109375 54.6875 
L 18.109375 46.1875 
Q 20.953125 51.171875 25.484375 53.578125 
Q 30.03125 56 36.53125 56 
Q 37.453125 56 38.578125 55.875 
Q 39.703125 55.765625 41.0625 55.515625 
z
" id="BitstreamVeraSans-Roman-72"/>
       <path d="M 50.984375 -16.609375 
L 50.984375 -23.578125 
L -0.984375 -23.578125 
L -0.984375 -16.609375 
z
" id="BitstreamVeraSans-Roman-5f"/>
       <path d="M 54.890625 33.015625 
L 54.890625 0 
L 45.90625 0 
L 45.90625 32.71875 
Q 45.90625 40.484375 42.875 44.328125 
Q 39.84375 48.1875 33.796875 48.1875 
Q 26.515625 48.1875 22.3125 43.546875 
Q 18.109375 38.921875 18.109375 30.90625 
L 18.109375 0 
L 9.078125 0 
L 9.078125 54.6875 
L 18.109375 54.6875 
L 18.109375 46.1875 
Q 21.34375 51.125 25.703125 53.5625 
Q 30.078125 56 35.796875 56 
Q 45.21875 56 50.046875 50.171875 
Q 54.890625 44.34375 54.890625 33.015625 
" id="BitstreamVeraSans-Roman-6e"/>
       <path d="M 54.890625 54.6875 
L 35.109375 28.078125 
L 55.90625 0 
L 45.3125 0 
L 29.390625 21.484375 
L 13.484375 0 
L 2.875 0 
L 24.125 28.609375 
L 4.6875 54.6875 
L 15.28125 54.6875 
L 29.78125 35.203125 
L 44.28125 54.6875 
z
" id="BitstreamVeraSans-Roman-78"/>
       <path d="M 19.1875 8.296875 
L 53.609375 8.296875 
L 53.609375 0 
L 7.328125 0 
L 7.328125 8.296875 
Q 12.9375 14.109375 22.625 23.890625 
Q 32.328125 33.6875 34.8125 36.53125 
Q 39.546875 41.84375 41.421875 45.53125 
Q 43.3125 49.21875 43.3125 52.78125 
Q 43.3125 58.59375 39.234375 62.25 
Q 35.15625 65.921875 28.609375 65.921875 
Q 23.96875 65.921875 18.8125 64.3125 
Q 13.671875 62.703125 7.8125 59.421875 
L 7.8125 69.390625 
Q 13.765625 71.78125 18.9375 73 
Q 24.125 74.21875 28.421875 74.21875 
Q 39.75 74.21875 46.484375 68.546875 
Q 53.21875 62.890625 53.21875 53.421875 
Q 53.21875 48.921875 51.53125 44.890625 
Q 49.859375 40.875 45.40625 35.40625 
Q 44.1875 33.984375 37.640625 27.21875 
Q 31.109375 20.453125 19.1875 8.296875 
" id="BitstreamVeraSans-Roman-32"/>
      </defs>
      <g style="fill:#555555;" transform="translate(21.48125 267.421875)scale(0.1 -0.1)">
       <use xlink:href="#BitstreamVeraSans-Roman-72"/>
       <use x="41.08203125" xlink:href="#BitstreamVeraSans-Roman-78"/>
       <use x="100.26171875" xlink:href="#BitstreamVeraSans-Roman-6e"/>
       <use x="163.640625" xlink:href="#BitstreamVeraSans-Roman-30"/>
       <use x="227.263671875" xlink:href="#BitstreamVeraSans-Roman-30"/>
       <use x="290.88671875" xlink:href="#BitstreamVeraSans-Roman-32"/>
       <use x="354.509765625" xlink:href="#BitstreamVeraSans-Roman-38"/>
       <use x="418.1328125" xlink:href="#BitstreamVeraSans-Roman-35"/>
       <use x="481.755859375" xlink:href="#BitstreamVeraSans-Roman-5f"/>
       <use x="531.755859375" xlink:href="#BitstreamVeraSans-Roman-63"/>
       <use x="586.736328125" xlink:href="#BitstreamVeraSans-Roman-30"/>
      </g>
     </g>
    </g>
    <g id="xtick_2">
     <g id="line2d_4">
      <path clip-path="url(#p07570a458a)" d="M 97.452304 252 
L 97.452304 28.8 
" style="fill:none;stroke:#ffffff;stroke-linecap:square;stroke-width:0.5;"/>
     </g>
     <g id="line2d_5">
      <g>
       <use style="fill:#555555;stroke:#555555;stroke-width:0.5;" x="97.4523036989" xlink:href="#m026e917fa3" y="252.0"/>
      </g>
     </g>
     <g id="line2d_6">
      <g>
       <use style="fill:#555555;stroke:#555555;stroke-width:0.5;" x="97.4523036989" xlink:href="#m8e4fb757b5" y="28.8"/>
      </g>
     </g>
     <g id="text_2">
      <!-- rxn01053_c0 -->
      <defs>
       <path d="M 40.578125 39.3125 
Q 47.65625 37.796875 51.625 33 
Q 55.609375 28.21875 55.609375 21.1875 
Q 55.609375 10.40625 48.1875 4.484375 
Q 40.765625 -1.421875 27.09375 -1.421875 
Q 22.515625 -1.421875 17.65625 -0.515625 
Q 12.796875 0.390625 7.625 2.203125 
L 7.625 11.71875 
Q 11.71875 9.328125 16.59375 8.109375 
Q 21.484375 6.890625 26.8125 6.890625 
Q 36.078125 6.890625 40.9375 10.546875 
Q 45.796875 14.203125 45.796875 21.1875 
Q 45.796875 27.640625 41.28125 31.265625 
Q 36.765625 34.90625 28.71875 34.90625 
L 20.21875 34.90625 
L 20.21875 43.015625 
L 29.109375 43.015625 
Q 36.375 43.015625 40.234375 45.921875 
Q 44.09375 48.828125 44.09375 54.296875 
Q 44.09375 59.90625 40.109375 62.90625 
Q 36.140625 65.921875 28.71875 65.921875 
Q 24.65625 65.921875 20.015625 65.03125 
Q 15.375 64.15625 9.8125 62.3125 
L 9.8125 71.09375 
Q 15.4375 72.65625 20.34375 73.4375 
Q 25.25 74.21875 29.59375 74.21875 
Q 40.828125 74.21875 47.359375 69.109375 
Q 53.90625 64.015625 53.90625 55.328125 
Q 53.90625 49.265625 50.4375 45.09375 
Q 46.96875 40.921875 40.578125 39.3125 
" id="BitstreamVeraSans-Roman-33"/>
       <path d="M 12.40625 8.296875 
L 28.515625 8.296875 
L 28.515625 63.921875 
L 10.984375 60.40625 
L 10.984375 69.390625 
L 28.421875 72.90625 
L 38.28125 72.90625 
L 38.28125 8.296875 
L 54.390625 8.296875 
L 54.390625 0 
L 12.40625 0 
z
" id="BitstreamVeraSans-Roman-31"/>
      </defs>
      <g style="fill:#555555;" transform="translate(64.9335536989 267.421875)scale(0.1 -0.1)">
       <use xlink:href="#BitstreamVeraSans-Roman-72"/>
       <use x="41.08203125" xlink:href="#BitstreamVeraSans-Roman-78"/>
       <use x="100.26171875" xlink:href="#BitstreamVeraSans-Roman-6e"/>
       <use x="163.640625" xlink:href="#BitstreamVeraSans-Roman-30"/>
       <use x="227.263671875" xlink:href="#BitstreamVeraSans-Roman-31"/>
       <use x="290.88671875" xlink:href="#BitstreamVeraSans-Roman-30"/>
       <use x="354.509765625" xlink:href="#BitstreamVeraSans-Roman-35"/>
       <use x="418.1328125" xlink:href="#BitstreamVeraSans-Roman-33"/>
       <use x="481.755859375" xlink:href="#BitstreamVeraSans-Roman-5f"/>
       <use x="531.755859375" xlink:href="#BitstreamVeraSans-Roman-63"/>
       <use x="586.736328125" xlink:href="#BitstreamVeraSans-Roman-30"/>
      </g>
     </g>
    </g>
    <g id="xtick_3">
     <g id="line2d_7">
      <path clip-path="url(#p07570a458a)" d="M 140.904607 252 
L 140.904607 28.8 
" style="fill:none;stroke:#ffffff;stroke-linecap:square;stroke-width:0.5;"/>
     </g>
     <g id="line2d_8">
      <g>
       <use style="fill:#555555;stroke:#555555;stroke-width:0.5;" x="140.904607398" xlink:href="#m026e917fa3" y="252.0"/>
      </g>
     </g>
     <g id="line2d_9">
      <g>
       <use style="fill:#555555;stroke:#555555;stroke-width:0.5;" x="140.904607398" xlink:href="#m8e4fb757b5" y="28.8"/>
      </g>
     </g>
     <g id="text_3">
      <!-- rxn04133_c0 -->
      <defs>
       <path d="M 37.796875 64.3125 
L 12.890625 25.390625 
L 37.796875 25.390625 
z
M 35.203125 72.90625 
L 47.609375 72.90625 
L 47.609375 25.390625 
L 58.015625 25.390625 
L 58.015625 17.1875 
L 47.609375 17.1875 
L 47.609375 0 
L 37.796875 0 
L 37.796875 17.1875 
L 4.890625 17.1875 
L 4.890625 26.703125 
z
" id="BitstreamVeraSans-Roman-34"/>
      </defs>
      <g style="fill:#555555;" transform="translate(108.385857398 267.421875)scale(0.1 -0.1)">
       <use xlink:href="#BitstreamVeraSans-Roman-72"/>
       <use x="41.08203125" xlink:href="#BitstreamVeraSans-Roman-78"/>
       <use x="100.26171875" xlink:href="#BitstreamVeraSans-Roman-6e"/>
       <use x="163.640625" xlink:href="#BitstreamVeraSans-Roman-30"/>
       <use x="227.263671875" xlink:href="#BitstreamVeraSans-Roman-34"/>
       <use x="290.88671875" xlink:href="#BitstreamVeraSans-Roman-31"/>
       <use x="354.509765625" xlink:href="#BitstreamVeraSans-Roman-33"/>
       <use x="418.1328125" xlink:href="#BitstreamVeraSans-Roman-33"/>
       <use x="481.755859375" xlink:href="#BitstreamVeraSans-Roman-5f"/>
       <use x="531.755859375" xlink:href="#BitstreamVeraSans-Roman-63"/>
       <use x="586.736328125" xlink:href="#BitstreamVeraSans-Roman-30"/>
      </g>
     </g>
    </g>
    <g id="xtick_4">
     <g id="line2d_10">
      <path clip-path="url(#p07570a458a)" d="M 184.356911 252 
L 184.356911 28.8 
" style="fill:none;stroke:#ffffff;stroke-linecap:square;stroke-width:0.5;"/>
     </g>
     <g id="line2d_11">
      <g>
       <use style="fill:#555555;stroke:#555555;stroke-width:0.5;" x="184.356911097" xlink:href="#m026e917fa3" y="252.0"/>
      </g>
     </g>
     <g id="line2d_12">
      <g>
       <use style="fill:#555555;stroke:#555555;stroke-width:0.5;" x="184.356911097" xlink:href="#m8e4fb757b5" y="28.8"/>
      </g>
     </g>
     <g id="text_4">
      <!-- rxn09110_c0 -->
      <defs>
       <path d="M 10.984375 1.515625 
L 10.984375 10.5 
Q 14.703125 8.734375 18.5 7.8125 
Q 22.3125 6.890625 25.984375 6.890625 
Q 35.75 6.890625 40.890625 13.453125 
Q 46.046875 20.015625 46.78125 33.40625 
Q 43.953125 29.203125 39.59375 26.953125 
Q 35.25 24.703125 29.984375 24.703125 
Q 19.046875 24.703125 12.671875 31.3125 
Q 6.296875 37.9375 6.296875 49.421875 
Q 6.296875 60.640625 12.9375 67.421875 
Q 19.578125 74.21875 30.609375 74.21875 
Q 43.265625 74.21875 49.921875 64.515625 
Q 56.59375 54.828125 56.59375 36.375 
Q 56.59375 19.140625 48.40625 8.859375 
Q 40.234375 -1.421875 26.421875 -1.421875 
Q 22.703125 -1.421875 18.890625 -0.6875 
Q 15.09375 0.046875 10.984375 1.515625 
M 30.609375 32.421875 
Q 37.25 32.421875 41.125 36.953125 
Q 45.015625 41.5 45.015625 49.421875 
Q 45.015625 57.28125 41.125 61.84375 
Q 37.25 66.40625 30.609375 66.40625 
Q 23.96875 66.40625 20.09375 61.84375 
Q 16.21875 57.28125 16.21875 49.421875 
Q 16.21875 41.5 20.09375 36.953125 
Q 23.96875 32.421875 30.609375 32.421875 
" id="BitstreamVeraSans-Roman-39"/>
      </defs>
      <g style="fill:#555555;" transform="translate(151.838161097 267.421875)scale(0.1 -0.1)">
       <use xlink:href="#BitstreamVeraSans-Roman-72"/>
       <use x="41.08203125" xlink:href="#BitstreamVeraSans-Roman-78"/>
       <use x="100.26171875" xlink:href="#BitstreamVeraSans-Roman-6e"/>
       <use x="163.640625" xlink:href="#BitstreamVeraSans-Roman-30"/>
       <use x="227.263671875" xlink:href="#BitstreamVeraSans-Roman-39"/>
       <use x="290.88671875" xlink:href="#BitstreamVeraSans-Roman-31"/>
       <use x="354.509765625" xlink:href="#BitstreamVeraSans-Roman-31"/>
       <use x="418.1328125" xlink:href="#BitstreamVeraSans-Roman-30"/>
       <use x="481.755859375" xlink:href="#BitstreamVeraSans-Roman-5f"/>
       <use x="531.755859375" xlink:href="#BitstreamVeraSans-Roman-63"/>
       <use x="586.736328125" xlink:href="#BitstreamVeraSans-Roman-30"/>
      </g>
     </g>
    </g>
    <g id="xtick_5">
     <g id="line2d_13">
      <path clip-path="url(#p07570a458a)" d="M 227.809215 252 
L 227.809215 28.8 
" style="fill:none;stroke:#ffffff;stroke-linecap:square;stroke-width:0.5;"/>
     </g>
     <g id="line2d_14">
      <g>
       <use style="fill:#555555;stroke:#555555;stroke-width:0.5;" x="227.809214796" xlink:href="#m026e917fa3" y="252.0"/>
      </g>
     </g>
     <g id="line2d_15">
      <g>
       <use style="fill:#555555;stroke:#555555;stroke-width:0.5;" x="227.809214796" xlink:href="#m8e4fb757b5" y="28.8"/>
      </g>
     </g>
     <g id="text_5">
      <!-- rxn03841_c0 -->
      <g style="fill:#555555;" transform="translate(195.290464796 267.421875)scale(0.1 -0.1)">
       <use xlink:href="#BitstreamVeraSans-Roman-72"/>
       <use x="41.08203125" xlink:href="#BitstreamVeraSans-Roman-78"/>
       <use x="100.26171875" xlink:href="#BitstreamVeraSans-Roman-6e"/>
       <use x="163.640625" xlink:href="#BitstreamVeraSans-Roman-30"/>
       <use x="227.263671875" xlink:href="#BitstreamVeraSans-Roman-33"/>
       <use x="290.88671875" xlink:href="#BitstreamVeraSans-Roman-38"/>
       <use x="354.509765625" xlink:href="#BitstreamVeraSans-Roman-34"/>
       <use x="418.1328125" xlink:href="#BitstreamVeraSans-Roman-31"/>
       <use x="481.755859375" xlink:href="#BitstreamVeraSans-Roman-5f"/>
       <use x="531.755859375" xlink:href="#BitstreamVeraSans-Roman-63"/>
       <use x="586.736328125" xlink:href="#BitstreamVeraSans-Roman-30"/>
      </g>
     </g>
    </g>
    <g id="xtick_6">
     <g id="line2d_16">
      <path clip-path="url(#p07570a458a)" d="M 271.261518 252 
L 271.261518 28.8 
" style="fill:none;stroke:#ffffff;stroke-linecap:square;stroke-width:0.5;"/>
     </g>
     <g id="line2d_17">
      <g>
       <use style="fill:#555555;stroke:#555555;stroke-width:0.5;" x="271.261518494" xlink:href="#m026e917fa3" y="252.0"/>
      </g>
     </g>
     <g id="line2d_18">
      <g>
       <use style="fill:#555555;stroke:#555555;stroke-width:0.5;" x="271.261518494" xlink:href="#m8e4fb757b5" y="28.8"/>
      </g>
     </g>
     <g id="text_6">
      <!-- rxn01640_c0 -->
      <defs>
       <path d="M 33.015625 40.375 
Q 26.375 40.375 22.484375 35.828125 
Q 18.609375 31.296875 18.609375 23.390625 
Q 18.609375 15.53125 22.484375 10.953125 
Q 26.375 6.390625 33.015625 6.390625 
Q 39.65625 6.390625 43.53125 10.953125 
Q 47.40625 15.53125 47.40625 23.390625 
Q 47.40625 31.296875 43.53125 35.828125 
Q 39.65625 40.375 33.015625 40.375 
M 52.59375 71.296875 
L 52.59375 62.3125 
Q 48.875 64.0625 45.09375 64.984375 
Q 41.3125 65.921875 37.59375 65.921875 
Q 27.828125 65.921875 22.671875 59.328125 
Q 17.53125 52.734375 16.796875 39.40625 
Q 19.671875 43.65625 24.015625 45.921875 
Q 28.375 48.1875 33.59375 48.1875 
Q 44.578125 48.1875 50.953125 41.515625 
Q 57.328125 34.859375 57.328125 23.390625 
Q 57.328125 12.15625 50.6875 5.359375 
Q 44.046875 -1.421875 33.015625 -1.421875 
Q 20.359375 -1.421875 13.671875 8.265625 
Q 6.984375 17.96875 6.984375 36.375 
Q 6.984375 53.65625 15.1875 63.9375 
Q 23.390625 74.21875 37.203125 74.21875 
Q 40.921875 74.21875 44.703125 73.484375 
Q 48.484375 72.75 52.59375 71.296875 
" id="BitstreamVeraSans-Roman-36"/>
      </defs>
      <g style="fill:#555555;" transform="translate(238.742768494 267.421875)scale(0.1 -0.1)">
       <use xlink:href="#BitstreamVeraSans-Roman-72"/>
       <use x="41.08203125" xlink:href="#BitstreamVeraSans-Roman-78"/>
       <use x="100.26171875" xlink:href="#BitstreamVeraSans-Roman-6e"/>
       <use x="163.640625" xlink:href="#BitstreamVeraSans-Roman-30"/>
       <use x="227.263671875" xlink:href="#BitstreamVeraSans-Roman-31"/>
       <use x="290.88671875" xlink:href="#BitstreamVeraSans-Roman-36"/>
       <use x="354.509765625" xlink:href="#BitstreamVeraSans-Roman-34"/>
       <use x="418.1328125" xlink:href="#BitstreamVeraSans-Roman-30"/>
       <use x="481.755859375" xlink:href="#BitstreamVeraSans-Roman-5f"/>
       <use x="531.755859375" xlink:href="#BitstreamVeraSans-Roman-63"/>
       <use x="586.736328125" xlink:href="#BitstreamVeraSans-Roman-30"/>
      </g>
     </g>
    </g>
    <g id="xtick_7">
     <g id="line2d_19">
      <path clip-path="url(#p07570a458a)" d="M 314.713822 252 
L 314.713822 28.8 
" style="fill:none;stroke:#ffffff;stroke-linecap:square;stroke-width:0.5;"/>
     </g>
     <g id="line2d_20">
      <g>
       <use style="fill:#555555;stroke:#555555;stroke-width:0.5;" x="314.713822193" xlink:href="#m026e917fa3" y="252.0"/>
      </g>
     </g>
     <g id="line2d_21">
      <g>
       <use style="fill:#555555;stroke:#555555;stroke-width:0.5;" x="314.713822193" xlink:href="#m8e4fb757b5" y="28.8"/>
      </g>
     </g>
     <g id="text_7">
      <!-- EX_cpd00054_e0 -->
      <defs>
       <path d="M 18.109375 8.203125 
L 18.109375 -20.796875 
L 9.078125 -20.796875 
L 9.078125 54.6875 
L 18.109375 54.6875 
L 18.109375 46.390625 
Q 20.953125 51.265625 25.265625 53.625 
Q 29.59375 56 35.59375 56 
Q 45.5625 56 51.78125 48.09375 
Q 58.015625 40.1875 58.015625 27.296875 
Q 58.015625 14.40625 51.78125 6.484375 
Q 45.5625 -1.421875 35.59375 -1.421875 
Q 29.59375 -1.421875 25.265625 0.953125 
Q 20.953125 3.328125 18.109375 8.203125 
M 48.6875 27.296875 
Q 48.6875 37.203125 44.609375 42.84375 
Q 40.53125 48.484375 33.40625 48.484375 
Q 26.265625 48.484375 22.1875 42.84375 
Q 18.109375 37.203125 18.109375 27.296875 
Q 18.109375 17.390625 22.1875 11.75 
Q 26.265625 6.109375 33.40625 6.109375 
Q 40.53125 6.109375 44.609375 11.75 
Q 48.6875 17.390625 48.6875 27.296875 
" id="BitstreamVeraSans-Roman-70"/>
       <path d="M 56.203125 29.59375 
L 56.203125 25.203125 
L 14.890625 25.203125 
Q 15.484375 15.921875 20.484375 11.0625 
Q 25.484375 6.203125 34.421875 6.203125 
Q 39.59375 6.203125 44.453125 7.46875 
Q 49.3125 8.734375 54.109375 11.28125 
L 54.109375 2.78125 
Q 49.265625 0.734375 44.1875 -0.34375 
Q 39.109375 -1.421875 33.890625 -1.421875 
Q 20.796875 -1.421875 13.15625 6.1875 
Q 5.515625 13.8125 5.515625 26.8125 
Q 5.515625 40.234375 12.765625 48.109375 
Q 20.015625 56 32.328125 56 
Q 43.359375 56 49.78125 48.890625 
Q 56.203125 41.796875 56.203125 29.59375 
M 47.21875 32.234375 
Q 47.125 39.59375 43.09375 43.984375 
Q 39.0625 48.390625 32.421875 48.390625 
Q 24.90625 48.390625 20.390625 44.140625 
Q 15.875 39.890625 15.1875 32.171875 
z
" id="BitstreamVeraSans-Roman-65"/>
       <path d="M 9.8125 72.90625 
L 55.90625 72.90625 
L 55.90625 64.59375 
L 19.671875 64.59375 
L 19.671875 43.015625 
L 54.390625 43.015625 
L 54.390625 34.71875 
L 19.671875 34.71875 
L 19.671875 8.296875 
L 56.78125 8.296875 
L 56.78125 0 
L 9.8125 0 
z
" id="BitstreamVeraSans-Roman-45"/>
       <path d="M 45.40625 46.390625 
L 45.40625 75.984375 
L 54.390625 75.984375 
L 54.390625 0 
L 45.40625 0 
L 45.40625 8.203125 
Q 42.578125 3.328125 38.25 0.953125 
Q 33.9375 -1.421875 27.875 -1.421875 
Q 17.96875 -1.421875 11.734375 6.484375 
Q 5.515625 14.40625 5.515625 27.296875 
Q 5.515625 40.1875 11.734375 48.09375 
Q 17.96875 56 27.875 56 
Q 33.9375 56 38.25 53.625 
Q 42.578125 51.265625 45.40625 46.390625 
M 14.796875 27.296875 
Q 14.796875 17.390625 18.875 11.75 
Q 22.953125 6.109375 30.078125 6.109375 
Q 37.203125 6.109375 41.296875 11.75 
Q 45.40625 17.390625 45.40625 27.296875 
Q 45.40625 37.203125 41.296875 42.84375 
Q 37.203125 48.484375 30.078125 48.484375 
Q 22.953125 48.484375 18.875 42.84375 
Q 14.796875 37.203125 14.796875 27.296875 
" id="BitstreamVeraSans-Roman-64"/>
       <path d="M 6.296875 72.90625 
L 16.890625 72.90625 
L 35.015625 45.796875 
L 53.21875 72.90625 
L 63.8125 72.90625 
L 40.375 37.890625 
L 65.375 0 
L 54.78125 0 
L 34.28125 31 
L 13.625 0 
L 2.984375 0 
L 29 38.921875 
z
" id="BitstreamVeraSans-Roman-58"/>
      </defs>
      <g style="fill:#555555;" transform="translate(271.867728443 267.5984375)scale(0.1 -0.1)">
       <use xlink:href="#BitstreamVeraSans-Roman-45"/>
       <use x="63.18359375" xlink:href="#BitstreamVeraSans-Roman-58"/>
       <use x="131.689453125" xlink:href="#BitstreamVeraSans-Roman-5f"/>
       <use x="181.689453125" xlink:href="#BitstreamVeraSans-Roman-63"/>
       <use x="236.669921875" xlink:href="#BitstreamVeraSans-Roman-70"/>
       <use x="300.146484375" xlink:href="#BitstreamVeraSans-Roman-64"/>
       <use x="363.623046875" xlink:href="#BitstreamVeraSans-Roman-30"/>
       <use x="427.24609375" xlink:href="#BitstreamVeraSans-Roman-30"/>
       <use x="490.869140625" xlink:href="#BitstreamVeraSans-Roman-30"/>
       <use x="554.4921875" xlink:href="#BitstreamVeraSans-Roman-35"/>
       <use x="618.115234375" xlink:href="#BitstreamVeraSans-Roman-34"/>
       <use x="681.73828125" xlink:href="#BitstreamVeraSans-Roman-5f"/>
       <use x="731.73828125" xlink:href="#BitstreamVeraSans-Roman-65"/>
       <use x="793.26171875" xlink:href="#BitstreamVeraSans-Roman-30"/>
      </g>
     </g>
    </g>
    <g id="xtick_8">
     <g id="line2d_22">
      <path clip-path="url(#p07570a458a)" d="M 358.166126 252 
L 358.166126 28.8 
" style="fill:none;stroke:#ffffff;stroke-linecap:square;stroke-width:0.5;"/>
     </g>
     <g id="line2d_23">
      <g>
       <use style="fill:#555555;stroke:#555555;stroke-width:0.5;" x="358.166125892" xlink:href="#m026e917fa3" y="252.0"/>
      </g>
     </g>
     <g id="line2d_24">
      <g>
       <use style="fill:#555555;stroke:#555555;stroke-width:0.5;" x="358.166125892" xlink:href="#m8e4fb757b5" y="28.8"/>
      </g>
     </g>
     <g id="text_8">
      <!-- rxn09161_c0 -->
      <g style="fill:#555555;" transform="translate(325.647375892 267.421875)scale(0.1 -0.1)">
       <use xlink:href="#BitstreamVeraSans-Roman-72"/>
       <use x="41.08203125" xlink:href="#BitstreamVeraSans-Roman-78"/>
       <use x="100.26171875" xlink:href="#BitstreamVeraSans-Roman-6e"/>
       <use x="163.640625" xlink:href="#BitstreamVeraSans-Roman-30"/>
       <use x="227.263671875" xlink:href="#BitstreamVeraSans-Roman-39"/>
       <use x="290.88671875" xlink:href="#BitstreamVeraSans-Roman-31"/>
       <use x="354.509765625" xlink:href="#BitstreamVeraSans-Roman-36"/>
       <use x="418.1328125" xlink:href="#BitstreamVeraSans-Roman-31"/>
       <use x="481.755859375" xlink:href="#BitstreamVeraSans-Roman-5f"/>
       <use x="531.755859375" xlink:href="#BitstreamVeraSans-Roman-63"/>
       <use x="586.736328125" xlink:href="#BitstreamVeraSans-Roman-30"/>
      </g>
     </g>
    </g>
   </g>
   <g id="matplotlib.axis_2">
    <g id="ytick_1">
     <g id="line2d_25">
      <path clip-path="url(#p07570a458a)" d="M 54 252 
L 388.8 252 
" style="fill:none;stroke:#ffffff;stroke-linecap:square;stroke-width:0.5;"/>
     </g>
     <g id="line2d_26">
      <defs>
       <path d="M 0 0 
L -4 0 
" id="m5e0c55772c" style="stroke:#555555;stroke-width:0.5;"/>
      </defs>
      <g>
       <use style="fill:#555555;stroke:#555555;stroke-width:0.5;" x="54.0" xlink:href="#m5e0c55772c" y="252.0"/>
      </g>
     </g>
     <g id="line2d_27">
      <defs>
       <path d="M 0 0 
L 4 0 
" id="m6f520d2686" style="stroke:#555555;stroke-width:0.5;"/>
      </defs>
      <g>
       <use style="fill:#555555;stroke:#555555;stroke-width:0.5;" x="388.8" xlink:href="#m6f520d2686" y="252.0"/>
      </g>
     </g>
     <g id="text_9">
      <!-- −1000 -->
      <defs>
       <path d="M 10.59375 35.5 
L 73.1875 35.5 
L 73.1875 27.203125 
L 10.59375 27.203125 
z
" id="BitstreamVeraSans-Roman-2212"/>
      </defs>
      <g style="fill:#555555;" transform="translate(12.1703125 254.759375)scale(0.1 -0.1)">
       <use xlink:href="#BitstreamVeraSans-Roman-2212"/>
       <use x="83.7890625" xlink:href="#BitstreamVeraSans-Roman-31"/>
       <use x="147.412109375" xlink:href="#BitstreamVeraSans-Roman-30"/>
       <use x="211.03515625" xlink:href="#BitstreamVeraSans-Roman-30"/>
       <use x="274.658203125" xlink:href="#BitstreamVeraSans-Roman-30"/>
      </g>
     </g>
    </g>
    <g id="ytick_2">
     <g id="line2d_28">
      <path clip-path="url(#p07570a458a)" d="M 54 196.2 
L 388.8 196.2 
" style="fill:none;stroke:#ffffff;stroke-linecap:square;stroke-width:0.5;"/>
     </g>
     <g id="line2d_29">
      <g>
       <use style="fill:#555555;stroke:#555555;stroke-width:0.5;" x="54.0" xlink:href="#m5e0c55772c" y="196.2"/>
      </g>
     </g>
     <g id="line2d_30">
      <g>
       <use style="fill:#555555;stroke:#555555;stroke-width:0.5;" x="388.8" xlink:href="#m6f520d2686" y="196.2"/>
      </g>
     </g>
     <g id="text_10">
      <!-- −500 -->
      <g style="fill:#555555;" transform="translate(18.5328125 198.959375)scale(0.1 -0.1)">
       <use xlink:href="#BitstreamVeraSans-Roman-2212"/>
       <use x="83.7890625" xlink:href="#BitstreamVeraSans-Roman-35"/>
       <use x="147.412109375" xlink:href="#BitstreamVeraSans-Roman-30"/>
       <use x="211.03515625" xlink:href="#BitstreamVeraSans-Roman-30"/>
      </g>
     </g>
    </g>
    <g id="ytick_3">
     <g id="line2d_31">
      <path clip-path="url(#p07570a458a)" d="M 54 140.4 
L 388.8 140.4 
" style="fill:none;stroke:#ffffff;stroke-linecap:square;stroke-width:0.5;"/>
     </g>
     <g id="line2d_32">
      <g>
       <use style="fill:#555555;stroke:#555555;stroke-width:0.5;" x="54.0" xlink:href="#m5e0c55772c" y="140.4"/>
      </g>
     </g>
     <g id="line2d_33">
      <g>
       <use style="fill:#555555;stroke:#555555;stroke-width:0.5;" x="388.8" xlink:href="#m6f520d2686" y="140.4"/>
      </g>
     </g>
     <g id="text_11">
      <!-- 0 -->
      <g style="fill:#555555;" transform="translate(39.6375 143.159375)scale(0.1 -0.1)">
       <use xlink:href="#BitstreamVeraSans-Roman-30"/>
      </g>
     </g>
    </g>
    <g id="ytick_4">
     <g id="line2d_34">
      <path clip-path="url(#p07570a458a)" d="M 54 84.6 
L 388.8 84.6 
" style="fill:none;stroke:#ffffff;stroke-linecap:square;stroke-width:0.5;"/>
     </g>
     <g id="line2d_35">
      <g>
       <use style="fill:#555555;stroke:#555555;stroke-width:0.5;" x="54.0" xlink:href="#m5e0c55772c" y="84.6"/>
      </g>
     </g>
     <g id="line2d_36">
      <g>
       <use style="fill:#555555;stroke:#555555;stroke-width:0.5;" x="388.8" xlink:href="#m6f520d2686" y="84.6"/>
      </g>
     </g>
     <g id="text_12">
      <!-- 500 -->
      <g style="fill:#555555;" transform="translate(26.9125 87.359375)scale(0.1 -0.1)">
       <use xlink:href="#BitstreamVeraSans-Roman-35"/>
       <use x="63.623046875" xlink:href="#BitstreamVeraSans-Roman-30"/>
       <use x="127.24609375" xlink:href="#BitstreamVeraSans-Roman-30"/>
      </g>
     </g>
    </g>
    <g id="ytick_5">
     <g id="line2d_37">
      <path clip-path="url(#p07570a458a)" d="M 54 28.8 
L 388.8 28.8 
" style="fill:none;stroke:#ffffff;stroke-linecap:square;stroke-width:0.5;"/>
     </g>
     <g id="line2d_38">
      <g>
       <use style="fill:#555555;stroke:#555555;stroke-width:0.5;" x="54.0" xlink:href="#m5e0c55772c" y="28.8"/>
      </g>
     </g>
     <g id="line2d_39">
      <g>
       <use style="fill:#555555;stroke:#555555;stroke-width:0.5;" x="388.8" xlink:href="#m6f520d2686" y="28.8"/>
      </g>
     </g>
     <g id="text_13">
      <!-- 1000 -->
      <g style="fill:#555555;" transform="translate(20.55 31.559375)scale(0.1 -0.1)">
       <use xlink:href="#BitstreamVeraSans-Roman-31"/>
       <use x="63.623046875" xlink:href="#BitstreamVeraSans-Roman-30"/>
       <use x="127.24609375" xlink:href="#BitstreamVeraSans-Roman-30"/>
       <use x="190.869140625" xlink:href="#BitstreamVeraSans-Roman-30"/>
      </g>
     </g>
    </g>
   </g>
   <g id="line2d_40">
    <path clip-path="url(#p07570a458a)" d="M 54 162.72 
L 54.434523 162.72 
L 54.651785 161.945576 
L 54.869046 154.951862 
L 55.086308 154.073572 
L 55.303569 153.703154 
L 55.520831 152.258443 
L 55.738092 147.205333 
L 55.955354 146.028048 
L 56.389877 145.948873 
L 56.607138 145.557369 
L 56.8244 144.872306 
L 57.041661 144.783506 
L 57.258923 143.201246 
L 57.693446 143.120467 
L 58.127969 142.213644 
L 58.562492 141.83695 
L 58.997015 141.760233 
L 59.214276 141.298161 
L 59.431538 141.255712 
L 59.866061 140.853411 
L 60.300584 140.853411 
L 60.517846 140.568406 
L 61.604153 140.512271 
L 62.255938 140.456135 
L 211.731862 140.368813 
L 212.600909 140.337628 
L 225.419338 140.275256 
L 225.853861 140.212883 
L 230.416353 140.15051 
L 230.850876 140.077294 
L 231.068138 140.077294 
L 231.285399 139.901022 
L 236.499676 139.89621 
L 239.541337 139.833838 
L 239.97586 139.756548 
L 240.410383 139.756548 
L 240.627644 139.542063 
L 241.931213 139.449208 
L 242.582998 139.392419 
L 243.017521 139.392419 
L 243.234783 138.88863 
L 243.669306 138.88863 
L 243.886567 138.687418 
L 256.922258 138.680716 
L 257.13952 138.38484 
L 258.66035 138.38484 
L 258.877612 138.2244 
L 259.094873 138.2244 
L 259.312135 137.969204 
L 259.746658 137.88105 
L 260.181181 137.287504 
L 260.398443 136.080378 
L 262.353796 135.997248 
L 262.571058 134.856707 
L 263.657365 134.66959 
L 264.30915 134.66959 
L 264.526411 134.234585 
L 265.395457 134.234585 
L 265.612719 131.140441 
L 266.264504 131.140441 
L 266.481765 125.25518 
L 267.568073 125.25518 
L 267.785334 120.313307 
L 268.437119 120.256935 
L 268.871642 120.256935 
L 269.088903 118.08 
L 269.306165 118.08 
L 269.523426 107.409122 
L 269.740688 106.89436 
L 270.609734 106.89436 
L 270.826995 105.987537 
L 271.044257 96.737403 
L 271.47878 96.737403 
L 271.696042 95.816135 
L 273.434134 95.76 
L 273.651395 95.300452 
L 275.389487 95.300452 
L 275.606749 91.436786 
L 275.82401 90.141539 
L 276.475795 90.141539 
L 276.693056 89.851105 
L 276.910318 89.851105 
L 277.127579 84.584407 
L 277.344841 83.242482 
L 277.562103 80.216613 
L 277.779364 78.938528 
L 277.996626 78.938528 
L 278.431149 77.124884 
L 278.64841 69.198024 
L 278.865672 57.212333 
L 279.517456 53.869264 
L 280.169241 53.869264 
L 280.386502 53.644723 
L 280.603764 53.588589 
L 280.821025 53.276009 
L 281.47281 53.276009 
L 281.907333 53.150789 
L 282.776379 53.074805 
L 282.99364 52.707628 
L 283.428164 52.707628 
L 283.645425 51.637854 
L 284.731733 51.561871 
L 284.948994 51.561871 
L 285.383517 51.176135 
L 286.035302 51.12 
L 294.291239 51.12 
L 294.508501 50.926964 
L 298.853731 50.829565 
L 299.070993 48.372746 
L 299.288254 48.030947 
L 299.505516 46.833914 
L 299.722777 46.591558 
L 299.940039 46.591558 
L 300.1573 42.473572 
L 300.374562 42.473572 
L 300.591823 42.103154 
L 301.895393 42.103154 
L 302.329916 39.180179 
L 302.547177 39.180179 
L 302.764439 39.011774 
L 303.198962 36.568138 
L 303.416223 36.081627 
L 303.633485 36.081627 
L 304.068008 35.605333 
L 304.285269 35.605333 
L 304.719792 35.384485 
L 304.937054 34.727792 
L 305.154315 33.272306 
L 306.457884 33.183506 
L 306.892408 31.882003 
L 307.109669 31.882003 
L 307.978715 31.520467 
L 309.065023 31.520467 
L 309.282284 31.067056 
L 309.499546 31.067056 
L 310.15133 29.78787 
L 311.020376 29.379107 
L 311.454899 29.379107 
L 312.106684 29.090435 
L 312.541207 29.066641 
L 312.97573 28.912271 
L 313.192992 28.912271 
L 313.627515 28.8 
L 388.8 28.8 
L 388.8 28.8 
" style="fill:none;stroke:#e24a33;stroke-linecap:square;"/>
   </g>
   <g id="line2d_41">
    <path clip-path="url(#p07570a458a)" d="M 54 252 
L 54.651785 252 
L 54.869046 199.591862 
L 55.086308 252 
L 55.520831 252 
L 55.738092 149.659559 
L 55.955354 146.653387 
L 56.389877 146.565415 
L 56.607138 146.13041 
L 56.8244 252 
L 57.041661 252 
L 57.258923 143.512496 
L 57.476184 252 
L 57.693446 252 
L 57.910707 142.830796 
L 58.34523 142.115873 
L 58.562492 185.499548 
L 58.779753 185.499548 
L 58.997015 141.91137 
L 59.214276 141.397957 
L 59.431538 141.350792 
L 59.866061 140.90379 
L 60.300584 140.90379 
L 60.517846 252 
L 60.735107 140.587117 
L 61.16963 140.524744 
L 61.604153 140.524744 
L 61.821415 144.802752 
L 62.038676 140.462372 
L 65.297599 140.462372 
L 65.51486 252 
L 66.81843 252 
L 67.035691 249.279533 
L 67.252953 249.279533 
L 67.470214 247.616494 
L 67.687476 238.696846 
L 67.904737 238.326428 
L 68.121999 229.68 
L 68.556522 229.68 
L 68.773783 229.194957 
L 68.991045 190.658461 
L 69.425568 190.658461 
L 69.642829 185.04 
L 69.860091 184.062597 
L 70.077352 173.90564 
L 70.294614 144.753429 
L 71.16366 144.740623 
L 71.380921 142.5756 
L 71.598183 142.5756 
L 71.815445 142.115873 
L 72.249968 142.112582 
L 72.467229 140.64949 
L 72.684491 140.64949 
L 73.119014 140.4 
L 220.856846 140.4 
L 221.074108 251.887729 
L 221.291369 229.567729 
L 221.508631 140.4 
L 221.943154 140.287729 
L 225.419338 140.287729 
L 225.6366 251.831594 
L 225.853861 140.4 
L 226.722907 140.4 
L 226.940169 140.231594 
L 229.547307 140.206964 
L 229.764568 140.4 
L 229.98183 140.4 
L 230.199091 140.17546 
L 230.416353 140.17546 
L 230.633615 251.54116 
L 230.850876 140.109565 
L 231.068138 140.109565 
L 231.285399 139.950919 
L 236.934199 139.946589 
L 238.672291 139.946589 
L 238.889552 140.4 
L 239.106814 140.4 
L 239.324075 139.890453 
L 240.410383 139.820893 
L 240.627644 139.627856 
L 241.931213 139.544288 
L 242.582998 139.493177 
L 243.017521 139.493177 
L 243.234783 139.039767 
L 243.669306 139.039767 
L 243.886567 140.4 
L 244.103829 140.4 
L 244.32109 246.072208 
L 244.538352 246.072208 
L 244.755613 140.4 
L 245.190136 140.4 
L 245.407398 138.855714 
L 256.704997 138.855714 
L 256.922258 143.032797 
L 257.13952 250.186356 
L 257.356781 138.586356 
L 258.66035 138.586356 
L 258.877612 140.4 
L 259.529396 140.4 
L 259.746658 138.132944 
L 259.96392 141.870034 
L 260.181181 137.598754 
L 260.398443 140.4 
L 262.136535 140.343865 
L 262.353796 229.623865 
L 262.571058 135.411037 
L 262.788319 140.4 
L 263.005581 140.4 
L 263.222842 135.242631 
L 264.30915 135.242631 
L 264.526411 134.851127 
L 265.395457 134.851127 
L 265.612719 133.594667 
L 266.264504 133.594667 
L 266.481765 140.4 
L 267.568073 140.4 
L 267.785334 122.321976 
L 268.437119 122.271242 
L 268.871642 122.271242 
L 269.088903 140.4 
L 269.306165 140.4 
L 269.523426 252 
L 269.740688 140.4 
L 270.609734 140.4 
L 270.826995 228.773177 
L 271.044257 140.4 
L 271.913303 140.462372 
L 272.130565 252 
L 272.347826 140.4 
L 273.434134 140.4 
L 273.651395 250.56305 
L 273.868657 138.96305 
L 275.389487 138.96305 
L 275.606749 140.4 
L 275.82401 252 
L 276.041272 140.4 
L 276.475795 140.4 
L 276.693056 140.109565 
L 276.910318 140.109565 
L 277.344841 252 
L 277.562103 140.4 
L 277.779364 252 
L 277.996626 252 
L 278.213887 251.093177 
L 278.431149 252 
L 278.865672 252 
L 279.082933 145.431602 
L 279.300195 252 
L 279.517456 140.4 
L 280.169241 140.4 
L 280.386502 140.17546 
L 280.603764 140.119325 
L 280.821025 140.4 
L 283.428164 140.4 
L 283.645425 226.212261 
L 283.862687 140.4 
L 284.514471 140.4 
L 284.731733 226.136278 
L 284.948994 140.4 
L 285.166256 252 
L 285.383517 140.462372 
L 285.600779 252 
L 286.904348 252 
L 287.121609 140.4 
L 298.201947 140.4 
L 298.419208 251.54116 
L 298.63647 140.109565 
L 298.853731 140.109565 
L 299.070993 252 
L 299.288254 252 
L 299.505516 244.631911 
L 299.722777 140.4 
L 300.374562 140.4 
L 300.591823 252 
L 300.809085 140.4 
L 302.112654 140.4 
L 302.329916 252 
L 302.547177 251.128695 
L 302.764439 251.128695 
L 302.9817 252 
L 303.198962 125.848138 
L 303.416223 252 
L 304.285269 252 
L 304.502531 140.4 
L 304.719792 249.732944 
L 304.937054 142.115873 
L 305.154315 252 
L 305.371577 252 
L 305.588838 140.4 
L 305.8061 252 
L 306.023361 252 
L 306.240623 140.4 
L 309.065023 140.4 
L 309.282284 245.415515 
L 309.499546 245.415515 
L 309.716807 142.41516 
L 309.934069 252 
L 310.15133 140.4 
L 310.368592 130.188226 
L 310.585853 251.943865 
L 311.237638 252 
L 311.454899 252 
L 311.672161 140.722706 
L 311.889422 243.601871 
L 312.106684 248.917997 
L 312.323945 118.370435 
L 312.541207 252 
L 312.758469 140.4 
L 313.192992 140.4 
L 313.410253 252 
L 362.076833 251.943865 
L 362.294095 251.733359 
L 362.511356 251.200019 
L 362.728618 251.200019 
L 362.945879 250.506915 
L 363.163141 248.627562 
L 363.380402 248.627562 
L 363.597664 245.028987 
L 363.814925 244.718373 
L 364.249448 238.696846 
L 364.46671 238.696846 
L 364.683971 238.326428 
L 365.118494 229.68 
L 365.335756 229.68 
L 365.553018 229.511594 
L 365.770279 228.135714 
L 365.987541 223.587667 
L 366.639325 190.658461 
L 366.856587 185.04 
L 367.29111 140.4 
L 384.020247 140.4 
L 384.237508 140.287729 
L 384.45477 139.41213 
L 384.672031 137.679533 
L 384.889293 137.679533 
L 385.323816 136.759187 
L 385.541077 136.016494 
L 386.410123 135.927694 
L 386.627385 129.316921 
L 386.844646 127.096846 
L 387.061908 126.726428 
L 387.279169 126.726428 
L 387.496431 118.08 
L 388.8 118.08 
L 388.8 118.08 
" style="fill:none;stroke:#348abd;stroke-linecap:square;"/>
   </g>
   <g id="patch_3">
    <path d="M 54 28.8 
L 388.8 28.8 
" style="fill:none;stroke:#ffffff;stroke-linecap:square;stroke-linejoin:miter;"/>
   </g>
   <g id="patch_4">
    <path d="M 388.8 252 
L 388.8 28.8 
" style="fill:none;stroke:#ffffff;stroke-linecap:square;stroke-linejoin:miter;"/>
   </g>
   <g id="patch_5">
    <path d="M 54 252 
L 388.8 252 
" style="fill:none;stroke:#ffffff;stroke-linecap:square;stroke-linejoin:miter;"/>
   </g>
   <g id="patch_6">
    <path d="M 54 252 
L 54 28.8 
" style="fill:none;stroke:#ffffff;stroke-linecap:square;stroke-linejoin:miter;"/>
   </g>
   <g id="legend_1">
    <g id="patch_7">
     <path d="M 60 73.6275 
L 163.66125 73.6275 
L 163.66125 34.8 
L 60 34.8 
z
" style="fill:#e5e5e5;stroke:#ffffff;stroke-linejoin:miter;stroke-width:0.5;"/>
    </g>
    <g id="line2d_42">
     <path d="M 68.4 44.518125 
L 85.2 44.518125 
" style="fill:none;stroke:#e24a33;stroke-linecap:square;"/>
    </g>
    <g id="line2d_43"/>
    <g id="text_14">
     <!-- maximum -->
     <defs>
      <path d="M 34.28125 27.484375 
Q 23.390625 27.484375 19.1875 25 
Q 14.984375 22.515625 14.984375 16.5 
Q 14.984375 11.71875 18.140625 8.90625 
Q 21.296875 6.109375 26.703125 6.109375 
Q 34.1875 6.109375 38.703125 11.40625 
Q 43.21875 16.703125 43.21875 25.484375 
L 43.21875 27.484375 
z
M 52.203125 31.203125 
L 52.203125 0 
L 43.21875 0 
L 43.21875 8.296875 
Q 40.140625 3.328125 35.546875 0.953125 
Q 30.953125 -1.421875 24.3125 -1.421875 
Q 15.921875 -1.421875 10.953125 3.296875 
Q 6 8.015625 6 15.921875 
Q 6 25.140625 12.171875 29.828125 
Q 18.359375 34.515625 30.609375 34.515625 
L 43.21875 34.515625 
L 43.21875 35.40625 
Q 43.21875 41.609375 39.140625 45 
Q 35.0625 48.390625 27.6875 48.390625 
Q 23 48.390625 18.546875 47.265625 
Q 14.109375 46.140625 10.015625 43.890625 
L 10.015625 52.203125 
Q 14.9375 54.109375 19.578125 55.046875 
Q 24.21875 56 28.609375 56 
Q 40.484375 56 46.34375 49.84375 
Q 52.203125 43.703125 52.203125 31.203125 
" id="BitstreamVeraSans-Roman-61"/>
      <path d="M 52 44.1875 
Q 55.375 50.25 60.0625 53.125 
Q 64.75 56 71.09375 56 
Q 79.640625 56 84.28125 50.015625 
Q 88.921875 44.046875 88.921875 33.015625 
L 88.921875 0 
L 79.890625 0 
L 79.890625 32.71875 
Q 79.890625 40.578125 77.09375 44.375 
Q 74.3125 48.1875 68.609375 48.1875 
Q 61.625 48.1875 57.5625 43.546875 
Q 53.515625 38.921875 53.515625 30.90625 
L 53.515625 0 
L 44.484375 0 
L 44.484375 32.71875 
Q 44.484375 40.625 41.703125 44.40625 
Q 38.921875 48.1875 33.109375 48.1875 
Q 26.21875 48.1875 22.15625 43.53125 
Q 18.109375 38.875 18.109375 30.90625 
L 18.109375 0 
L 9.078125 0 
L 9.078125 54.6875 
L 18.109375 54.6875 
L 18.109375 46.1875 
Q 21.1875 51.21875 25.484375 53.609375 
Q 29.78125 56 35.6875 56 
Q 41.65625 56 45.828125 52.96875 
Q 50 49.953125 52 44.1875 
" id="BitstreamVeraSans-Roman-6d"/>
      <path d="M 8.5 21.578125 
L 8.5 54.6875 
L 17.484375 54.6875 
L 17.484375 21.921875 
Q 17.484375 14.15625 20.5 10.265625 
Q 23.53125 6.390625 29.59375 6.390625 
Q 36.859375 6.390625 41.078125 11.03125 
Q 45.3125 15.671875 45.3125 23.6875 
L 45.3125 54.6875 
L 54.296875 54.6875 
L 54.296875 0 
L 45.3125 0 
L 45.3125 8.40625 
Q 42.046875 3.421875 37.71875 1 
Q 33.40625 -1.421875 27.6875 -1.421875 
Q 18.265625 -1.421875 13.375 4.4375 
Q 8.5 10.296875 8.5 21.578125 
" id="BitstreamVeraSans-Roman-75"/>
      <path d="M 9.421875 54.6875 
L 18.40625 54.6875 
L 18.40625 0 
L 9.421875 0 
z
M 9.421875 75.984375 
L 18.40625 75.984375 
L 18.40625 64.59375 
L 9.421875 64.59375 
z
" id="BitstreamVeraSans-Roman-69"/>
     </defs>
     <g transform="translate(98.4 48.718125)scale(0.12 -0.12)">
      <use xlink:href="#BitstreamVeraSans-Roman-6d"/>
      <use x="97.412109375" xlink:href="#BitstreamVeraSans-Roman-61"/>
      <use x="158.69140625" xlink:href="#BitstreamVeraSans-Roman-78"/>
      <use x="217.87109375" xlink:href="#BitstreamVeraSans-Roman-69"/>
      <use x="245.654296875" xlink:href="#BitstreamVeraSans-Roman-6d"/>
      <use x="343.06640625" xlink:href="#BitstreamVeraSans-Roman-75"/>
      <use x="406.4453125" xlink:href="#BitstreamVeraSans-Roman-6d"/>
     </g>
    </g>
    <g id="line2d_44">
     <path d="M 68.4 62.131875 
L 85.2 62.131875 
" style="fill:none;stroke:#348abd;stroke-linecap:square;"/>
    </g>
    <g id="line2d_45"/>
    <g id="text_15">
     <!-- minimum -->
     <g transform="translate(98.4 66.331875)scale(0.12 -0.12)">
      <use xlink:href="#BitstreamVeraSans-Roman-6d"/>
      <use x="97.412109375" xlink:href="#BitstreamVeraSans-Roman-69"/>
      <use x="125.1953125" xlink:href="#BitstreamVeraSans-Roman-6e"/>
      <use x="188.57421875" xlink:href="#BitstreamVeraSans-Roman-69"/>
      <use x="216.357421875" xlink:href="#BitstreamVeraSans-Roman-6d"/>
      <use x="313.76953125" xlink:href="#BitstreamVeraSans-Roman-75"/>
      <use x="377.1484375" xlink:href="#BitstreamVeraSans-Roman-6d"/>
     </g>
    </g>
   </g>
  </g>
 </g>
 <defs>
  <clipPath id="p07570a458a">
   <rect height="223.2" width="334.8" x="54.0" y="28.8"/>
  </clipPath>
 </defs>
</svg>
